<svg width="163" height="162" viewBox="0 0 163 162" fill="none" xmlns="http://www.w3.org/2000/svg">
<rect width="162.967" height="161.53" rx="80.7651" fill="#1A7A82"/>
<rect width="162.967" height="161.53" rx="80.7651" stroke="#1A7A82"/>
<path d="M82.8739 75.9779C85.0792 75.733 87.3103 76.0735 89.3388 76.9652C91.3674 77.857 93.1208 79.2674 94.4179 81.0522C96.9176 85.7779 98.0539 91.0958 97.7021 96.4203V147.353C97.6665 147.362 97.6312 147.372 97.5956 147.381C87.8439 149.829 77.6566 150.037 67.8114 147.99C66.8692 147.794 65.9325 147.577 65.0019 147.341V99.8188C64.454 93.4322 65.9411 87.0359 69.2528 81.5307C70.8997 79.5813 72.9997 78.0576 75.372 77.0902C77.7446 76.1229 80.3196 75.7413 82.8739 75.9779ZM139.482 52.7104C144.272 61.4785 146.978 71.215 147.395 81.1772C147.812 91.1393 145.929 101.064 141.889 110.196C137.848 119.327 131.758 127.423 124.082 133.868C123.011 134.766 121.913 135.628 120.79 136.455V92.3031C120.841 87.4799 120.371 82.665 119.389 77.9408C118.617 74.0356 116.966 70.3527 114.559 67.1684C112.105 64.078 108.873 61.6838 105.188 60.227C100.352 58.3987 95.195 57.5514 90.0224 57.7367C85.0023 57.7356 80.0473 58.8656 75.5321 61.0404C70.7651 63.3383 66.8089 67.0093 64.1816 71.5727H63.6503V52.7104H139.482ZM41.5761 52.7104V136.17C41.3111 135.972 41.0472 135.772 40.7851 135.57C32.8477 129.445 26.4261 121.604 22.0097 112.646C17.5933 103.688 15.2984 93.848 15.3007 83.8773C15.2848 72.9913 18.0251 62.2747 23.2704 52.7104H41.5761Z" fill="white"/>
<path d="M63.9396 26.331H41.6246V52.9974H63.9396V26.331Z" fill="#DAD9D8"/>
</svg>
