{
	"asset":{
		"version":"2.0",
		"generator":"Maxon Cinema 4D 2026.1.0 (#200000219)"
	},
	"scenes":[{
		"nodes":[0]
	}],
	"nodes":[{
		"name":"HeartWorm",
		"mesh":0,
		"translation":[0.0,
		-0.00892667192965746,
		0.0],
		"rotation":[0.0,
		0.0,
		0.0,
		-1.0],
		"scale":[0.7593554854393005,
		0.7593554854393005,
		0.7593554854393005]
	}],
	"meshes":[{
		"name":"HeartWorm",
		"primitives":[{
			"attributes":{
				"POSITION":1,
				"NORMAL":2,
				"TEXCOORD_0":3
			},
			"indices":0,
			"material":0
		}]
	}],
	"accessors":[{
		"bufferView":0,
		"type":"SCALAR",
		"componentType":5123,
		"count":9744,
		"byteOffset":0,
		"min":[0],
		"max":[9743]
	},
	{
		"bufferView":1,
		"type":"VEC3",
		"componentType":5126,
		"count":9744,
		"byteOffset":0,
		"min":[-1.1786081790924073,
		-0.05583423748612404,
		-0.9339244365692139],
		"max":[1.3357549905776978,
		0.4886903464794159,
		1.1831141710281373]
	},
	{
		"bufferView":1,
		"type":"VEC3",
		"componentType":5126,
		"count":9744,
		"byteOffset":12,
		"min":[-0.9997509717941284,
		-0.999701201915741,
		-0.9990324974060059],
		"max":[0.9997503161430359,
		0.9997032284736633,
		0.9990362524986267]
	},
	{
		"bufferView":1,
		"type":"VEC2",
		"componentType":5126,
		"count":9744,
		"byteOffset":24,
		"min":[0.0,
		0.0],
		"max":[1.0,
		1.0]
	}],
	"bufferViews":[{
		"buffer":0,
		"byteOffset":0,
		"byteLength":19488,
		"target":34963
	},
	{
		"buffer":0,
		"byteOffset":19488,
		"byteLength":311808,
		"target":34962,
		"byteStride":32
	}],
	"buffers":[{
		"uri":"data:application/octet-stream;base64,",
		"byteLength":331296
	}],
	"materials":[{
		"pbrMetallicRoughness":{
			"baseColorFactor":[0.9063319563865662,
			3.610703207637572e-8,
			0.6948529481887812,
			1.0],
			"metallicFactor":0.0,
			"roughnessFactor":0.5
		},
		"emissiveFactor":[0.0,
		0.0,
		0.0],
		"alphaMode":"OPAQUE",
		"doubleSided":false,
		"name":"Mat"
	}]
}