{
	"asset":{
		"version":"2.0",
		"generator":"Maxon Cinema 4D 2026.1.0 (#200000219)"
	},
	"scenes":[{
		"nodes":[0]
	}],
	"nodes":[{
		"name":"Tape Worm",
		"translation":[0.0,
		0.04206765443086624,
		0.0],
		"rotation":[0.0,
		0.0,
		0.0,
		-1.0],
		"scale":[0.5624336004257202,
		0.5624336004257202,
		0.5624336004257202],
		"children":[1,
		2,
		3,
		4,
		5,
		6,
		7,
		8,
		9,
		10,
		11,
		12,
		13,
		14,
		15,
		16,
		17,
		18,
		19,
		20,
		21,
		22,
		23,
		24,
		25,
		26,
		27,
		28,
		29,
		30,
		31,
		32,
		33,
		34,
		35,
		36,
		37,
		38,
		39,
		40,
		41,
		42,
		43,
		44]
	},
	{
		"name":"Head",
		"mesh":0,
		"translation":[-1.3502308130264283,
		-0.7255538105964661,
		2.382014036178589],
		"rotation":[0.0,
		0.0,
		0.0,
		-1.0],
		"scale":[1.0,
		1.0,
		1.0]
	},
	{
		"name":"Section 0",
		"mesh":1,
		"translation":[-1.3502308130264283,
		-0.7255538105964661,
		2.382014036178589],
		"rotation":[0.0,
		0.0,
		0.0,
		-1.0],
		"scale":[1.0,
		1.0,
		1.0]
	},
	{
		"name":"Section 1",
		"mesh":2,
		"translation":[-1.3502308130264283,
		-0.7255538105964661,
		2.382014036178589],
		"rotation":[0.0,
		0.0,
		0.0,
		-1.0],
		"scale":[1.0,
		1.0,
		1.0]
	},
	{
		"name":"Section 2",
		"mesh":3,
		"translation":[-1.3502308130264283,
		-0.7255538105964661,
		2.382014036178589],
		"rotation":[0.0,
		0.0,
		0.0,
		-1.0],
		"scale":[1.0,
		1.0,
		1.0]
	},
	{
		"name":"Section 3",
		"mesh":4,
		"translation":[-1.3502308130264283,
		-0.7255538105964661,
		2.382014036178589],
		"rotation":[0.0,
		0.0,
		0.0,
		-1.0],
		"scale":[1.0,
		1.0,
		1.0]
	},
	{
		"name":"Section 4",
		"mesh":5,
		"translation":[-1.3502308130264283,
		-0.7255538105964661,
		2.382014036178589],
		"rotation":[0.0,
		0.0,
		0.0,
		-1.0],
		"scale":[1.0,
		1.0,
		1.0]
	},
	{
		"name":"Section 5",
		"mesh":6,
		"translation":[-1.3502308130264283,
		-0.7255538105964661,
		2.382014036178589],
		"rotation":[0.0,
		0.0,
		0.0,
		-1.0],
		"scale":[1.0,
		1.0,
		1.0]
	},
	{
		"name":"Section 6",
		"mesh":7,
		"translation":[-1.3502308130264283,
		-0.7255538105964661,
		2.382014036178589],
		"rotation":[0.0,
		0.0,
		0.0,
		-1.0],
		"scale":[1.0,
		1.0,
		1.0]
	},
	{
		"name":"Section 7",
		"mesh":8,
		"translation":[-1.3502308130264283,
		-0.7255538105964661,
		2.382014036178589],
		"rotation":[0.0,
		0.0,
		0.0,
		-1.0],
		"scale":[1.0,
		1.0,
		1.0]
	},
	{
		"name":"Section 8",
		"mesh":9,
		"translation":[-1.3502308130264283,
		-0.7255538105964661,
		2.382014036178589],
		"rotation":[0.0,
		0.0,
		0.0,
		-1.0],
		"scale":[1.0,
		1.0,
		1.0]
	},
	{
		"name":"Section 9",
		"mesh":10,
		"translation":[-1.3502308130264283,
		-0.7255538105964661,
		2.382014036178589],
		"rotation":[0.0,
		0.0,
		0.0,
		-1.0],
		"scale":[1.0,
		1.0,
		1.0]
	},
	{
		"name":"Section 10",
		"mesh":11,
		"translation":[-1.3502308130264283,
		-0.7255538105964661,
		2.382014036178589],
		"rotation":[0.0,
		0.0,
		0.0,
		-1.0],
		"scale":[1.0,
		1.0,
		1.0]
	},
	{
		"name":"Section 11",
		"mesh":12,
		"translation":[-1.3502308130264283,
		-0.7255538105964661,
		2.382014036178589],
		"rotation":[0.0,
		0.0,
		0.0,
		-1.0],
		"scale":[1.0,
		1.0,
		1.0]
	},
	{
		"name":"Section 12",
		"mesh":13,
		"translation":[-1.3502308130264283,
		-0.7255538105964661,
		2.382014036178589],
		"rotation":[0.0,
		0.0,
		0.0,
		-1.0],
		"scale":[1.0,
		1.0,
		1.0]
	},
	{
		"name":"Section 13",
		"mesh":14,
		"translation":[-1.3502308130264283,
		-0.7255538105964661,
		2.382014036178589],
		"rotation":[0.0,
		0.0,
		0.0,
		-1.0],
		"scale":[1.0,
		1.0,
		1.0]
	},
	{
		"name":"Section 14",
		"mesh":15,
		"translation":[-1.3502308130264283,
		-0.7255538105964661,
		2.382014036178589],
		"rotation":[0.0,
		0.0,
		0.0,
		-1.0],
		"scale":[1.0,
		1.0,
		1.0]
	},
	{
		"name":"Section 15",
		"mesh":16,
		"translation":[-1.3502308130264283,
		-0.7255538105964661,
		2.382014036178589],
		"rotation":[0.0,
		0.0,
		0.0,
		-1.0],
		"scale":[1.0,
		1.0,
		1.0]
	},
	{
		"name":"Section 16",
		"mesh":17,
		"translation":[-1.3502308130264283,
		-0.7255538105964661,
		2.382014036178589],
		"rotation":[0.0,
		0.0,
		0.0,
		-1.0],
		"scale":[1.0,
		1.0,
		1.0]
	},
	{
		"name":"Section 17",
		"mesh":18,
		"translation":[-1.3502308130264283,
		-0.7255538105964661,
		2.382014036178589],
		"rotation":[0.5,
		0.5,
		0.5,
		-0.5],
		"scale":[0.0,
		0.0,
		0.0]
	},
	{
		"name":"Section 18",
		"mesh":19,
		"translation":[-1.3502308130264283,
		-0.7255538105964661,
		2.382014036178589],
		"rotation":[0.5,
		0.5,
		0.5,
		-0.5],
		"scale":[0.0,
		0.0,
		0.0]
	},
	{
		"name":"Section 19",
		"mesh":20,
		"translation":[-1.3502308130264283,
		-0.7255538105964661,
		2.382014036178589],
		"rotation":[0.5,
		0.5,
		0.5,
		-0.5],
		"scale":[0.0,
		0.0,
		0.0]
	},
	{
		"name":"Section 20",
		"mesh":21,
		"translation":[-1.3502308130264283,
		-0.7255538105964661,
		2.382014036178589],
		"rotation":[0.5,
		0.5,
		0.5,
		-0.5],
		"scale":[0.0,
		0.0,
		0.0]
	},
	{
		"name":"Section 21",
		"mesh":22,
		"translation":[-1.3502308130264283,
		-0.7255538105964661,
		2.382014036178589],
		"rotation":[0.5,
		0.5,
		0.5,
		-0.5],
		"scale":[0.0,
		0.0,
		0.0]
	},
	{
		"name":"Section 22",
		"mesh":23,
		"translation":[-1.3502308130264283,
		-0.7255538105964661,
		2.382014036178589],
		"rotation":[0.5,
		0.5,
		0.5,
		-0.5],
		"scale":[0.0,
		0.0,
		0.0]
	},
	{
		"name":"Section 23",
		"mesh":24,
		"translation":[-1.3502308130264283,
		-0.7255538105964661,
		2.382014036178589],
		"rotation":[0.5,
		0.5,
		0.5,
		-0.5],
		"scale":[0.0,
		0.0,
		0.0]
	},
	{
		"name":"Section 24",
		"mesh":25,
		"translation":[-1.3502308130264283,
		-0.7255538105964661,
		2.382014036178589],
		"rotation":[0.5,
		0.5,
		0.5,
		-0.5],
		"scale":[0.0,
		0.0,
		0.0]
	},
	{
		"name":"Section 25",
		"mesh":26,
		"translation":[-1.3502308130264283,
		-0.7255538105964661,
		2.382014036178589],
		"rotation":[0.5,
		0.5,
		0.5,
		-0.5],
		"scale":[0.0,
		0.0,
		0.0]
	},
	{
		"name":"Section 26",
		"mesh":27,
		"translation":[-1.3502308130264283,
		-0.7255538105964661,
		2.382014036178589],
		"rotation":[0.5,
		0.5,
		0.5,
		-0.5],
		"scale":[0.0,
		0.0,
		0.0]
	},
	{
		"name":"Section 27",
		"mesh":28,
		"translation":[-1.3502308130264283,
		-0.7255538105964661,
		2.382014036178589],
		"rotation":[0.5,
		0.5,
		0.5,
		-0.5],
		"scale":[0.0,
		0.0,
		0.0]
	},
	{
		"name":"Section 28",
		"mesh":29,
		"translation":[-1.3502308130264283,
		-0.7255538105964661,
		2.382014036178589],
		"rotation":[0.5,
		0.5,
		0.5,
		-0.5],
		"scale":[0.0,
		0.0,
		0.0]
	},
	{
		"name":"Section 29",
		"mesh":30,
		"translation":[-1.3502308130264283,
		-0.7255538105964661,
		2.382014036178589],
		"rotation":[0.5,
		0.5,
		0.5,
		-0.5],
		"scale":[0.0,
		0.0,
		0.0]
	},
	{
		"name":"Section 30",
		"mesh":31,
		"translation":[-1.3502308130264283,
		-0.7255538105964661,
		2.382014036178589],
		"rotation":[0.5,
		0.5,
		0.5,
		-0.5],
		"scale":[0.0,
		0.0,
		0.0]
	},
	{
		"name":"Section 31",
		"mesh":32,
		"translation":[-1.3502308130264283,
		-0.7255538105964661,
		2.382014036178589],
		"rotation":[0.5,
		0.5,
		0.5,
		-0.5],
		"scale":[0.0,
		0.0,
		0.0]
	},
	{
		"name":"Section 32",
		"mesh":33,
		"translation":[-1.3502308130264283,
		-0.7255538105964661,
		2.382014036178589],
		"rotation":[0.5,
		0.5,
		0.5,
		-0.5],
		"scale":[0.0,
		0.0,
		0.0]
	},
	{
		"name":"Section 33",
		"mesh":34,
		"translation":[-1.3502308130264283,
		-0.7255538105964661,
		2.382014036178589],
		"rotation":[0.5,
		0.5,
		0.5,
		-0.5],
		"scale":[0.0,
		0.0,
		0.0]
	},
	{
		"name":"Section 34",
		"mesh":35,
		"translation":[-1.3502308130264283,
		-0.7255538105964661,
		2.382014036178589],
		"rotation":[0.5,
		0.5,
		0.5,
		-0.5],
		"scale":[0.0,
		0.0,
		0.0]
	},
	{
		"name":"Section 35",
		"mesh":36,
		"translation":[-1.3502308130264283,
		-0.7255538105964661,
		2.382014036178589],
		"rotation":[0.5,
		0.5,
		0.5,
		-0.5],
		"scale":[0.0,
		0.0,
		0.0]
	},
	{
		"name":"Section 36",
		"mesh":37,
		"translation":[-1.3502308130264283,
		-0.7255538105964661,
		2.382014036178589],
		"rotation":[0.5,
		0.5,
		0.5,
		-0.5],
		"scale":[0.0,
		0.0,
		0.0]
	},
	{
		"name":"Section 37",
		"mesh":38,
		"translation":[-1.3502308130264283,
		-0.7255538105964661,
		2.382014036178589],
		"rotation":[0.5,
		0.5,
		0.5,
		-0.5],
		"scale":[0.0,
		0.0,
		0.0]
	},
	{
		"name":"Section 38",
		"mesh":39,
		"translation":[-1.3502308130264283,
		-0.7255538105964661,
		2.382014036178589],
		"rotation":[0.5,
		0.5,
		0.5,
		-0.5],
		"scale":[0.0,
		0.0,
		0.0]
	},
	{
		"name":"Section 39",
		"mesh":40,
		"translation":[-1.3502308130264283,
		-0.7255538105964661,
		2.382014036178589],
		"rotation":[0.5,
		0.5,
		0.5,
		-0.5],
		"scale":[0.0,
		0.0,
		0.0]
	},
	{
		"name":"Section 40",
		"mesh":41,
		"translation":[-1.3502308130264283,
		-0.7255538105964661,
		2.382014036178589],
		"rotation":[0.5,
		0.5,
		0.5,
		-0.5],
		"scale":[0.0,
		0.0,
		0.0]
	},
	{
		"name":"Section 41",
		"mesh":42,
		"translation":[-1.3502308130264283,
		-0.7255538105964661,
		2.382014036178589],
		"rotation":[0.5,
		0.5,
		0.5,
		-0.5],
		"scale":[0.0,
		0.0,
		0.0]
	},
	{
		"name":"Section 42",
		"mesh":43,
		"translation":[-1.3502308130264283,
		-0.7255538105964661,
		2.382014036178589],
		"rotation":[0.5,
		0.5,
		0.5,
		-0.5],
		"scale":[0.0,
		0.0,
		0.0]
	}],
	"meshes":[{
		"name":"Head",
		"primitives":[{
			"attributes":{
				"POSITION":1,
				"NORMAL":2,
				"TEXCOORD_0":3
			},
			"indices":0,
			"material":0
		}]
	},
	{
		"name":"Section 0",
		"primitives":[{
			"attributes":{
				"POSITION":5,
				"NORMAL":6,
				"TEXCOORD_0":7
			},
			"indices":4,
			"material":0
		}]
	},
	{
		"name":"Section 1",
		"primitives":[{
			"attributes":{
				"POSITION":9,
				"NORMAL":10,
				"TEXCOORD_0":11
			},
			"indices":8,
			"material":0
		}]
	},
	{
		"name":"Section 2",
		"primitives":[{
			"attributes":{
				"POSITION":13,
				"NORMAL":14,
				"TEXCOORD_0":15
			},
			"indices":12,
			"material":0
		}]
	},
	{
		"name":"Section 3",
		"primitives":[{
			"attributes":{
				"POSITION":17,
				"NORMAL":18,
				"TEXCOORD_0":19
			},
			"indices":16,
			"material":0
		}]
	},
	{
		"name":"Section 4",
		"primitives":[{
			"attributes":{
				"POSITION":21,
				"NORMAL":22,
				"TEXCOORD_0":23
			},
			"indices":20,
			"material":0
		}]
	},
	{
		"name":"Section 5",
		"primitives":[{
			"attributes":{
				"POSITION":25,
				"NORMAL":26,
				"TEXCOORD_0":27
			},
			"indices":24,
			"material":0
		}]
	},
	{
		"name":"Section 6",
		"primitives":[{
			"attributes":{
				"POSITION":29,
				"NORMAL":30,
				"TEXCOORD_0":31
			},
			"indices":28,
			"material":0
		}]
	},
	{
		"name":"Section 7",
		"primitives":[{
			"attributes":{
				"POSITION":33,
				"NORMAL":34,
				"TEXCOORD_0":35
			},
			"indices":32,
			"material":0
		}]
	},
	{
		"name":"Section 8",
		"primitives":[{
			"attributes":{
				"POSITION":37,
				"NORMAL":38,
				"TEXCOORD_0":39
			},
			"indices":36,
			"material":0
		}]
	},
	{
		"name":"Section 9",
		"primitives":[{
			"attributes":{
				"POSITION":41,
				"NORMAL":42,
				"TEXCOORD_0":43
			},
			"indices":40,
			"material":0
		}]
	},
	{
		"name":"Section 10",
		"primitives":[{
			"attributes":{
				"POSITION":45,
				"NORMAL":46,
				"TEXCOORD_0":47
			},
			"indices":44,
			"material":0
		}]
	},
	{
		"name":"Section 11",
		"primitives":[{
			"attributes":{
				"POSITION":49,
				"NORMAL":50,
				"TEXCOORD_0":51
			},
			"indices":48,
			"material":0
		}]
	},
	{
		"name":"Section 12",
		"primitives":[{
			"attributes":{
				"POSITION":53,
				"NORMAL":54,
				"TEXCOORD_0":55
			},
			"indices":52,
			"material":0
		}]
	},
	{
		"name":"Section 13",
		"primitives":[{
			"attributes":{
				"POSITION":57,
				"NORMAL":58,
				"TEXCOORD_0":59
			},
			"indices":56,
			"material":0
		}]
	},
	{
		"name":"Section 14",
		"primitives":[{
			"attributes":{
				"POSITION":61,
				"NORMAL":62,
				"TEXCOORD_0":63
			},
			"indices":60,
			"material":0
		}]
	},
	{
		"name":"Section 15",
		"primitives":[{
			"attributes":{
				"POSITION":65,
				"NORMAL":66,
				"TEXCOORD_0":67
			},
			"indices":64,
			"material":0
		}]
	},
	{
		"name":"Section 16",
		"primitives":[{
			"attributes":{
				"POSITION":69,
				"NORMAL":70,
				"TEXCOORD_0":71
			},
			"indices":68,
			"material":0
		}]
	},
	{
		"name":"Section 17",
		"primitives":[{
			"attributes":{
				"POSITION":73,
				"NORMAL":74,
				"TEXCOORD_0":75
			},
			"indices":72,
			"material":0
		}]
	},
	{
		"name":"Section 18",
		"primitives":[{
			"attributes":{
				"POSITION":81,
				"NORMAL":82,
				"TEXCOORD_0":83
			},
			"indices":80,
			"material":0
		}]
	},
	{
		"name":"Section 19",
		"primitives":[{
			"attributes":{
				"POSITION":89,
				"NORMAL":90,
				"TEXCOORD_0":91
			},
			"indices":88,
			"material":0
		}]
	},
	{
		"name":"Section 20",
		"primitives":[{
			"attributes":{
				"POSITION":97,
				"NORMAL":98,
				"TEXCOORD_0":99
			},
			"indices":96,
			"material":0
		}]
	},
	{
		"name":"Section 21",
		"primitives":[{
			"attributes":{
				"POSITION":105,
				"NORMAL":106,
				"TEXCOORD_0":107
			},
			"indices":104,
			"material":0
		}]
	},
	{
		"name":"Section 22",
		"primitives":[{
			"attributes":{
				"POSITION":113,
				"NORMAL":114,
				"TEXCOORD_0":115
			},
			"indices":112,
			"material":0
		}]
	},
	{
		"name":"Section 23",
		"primitives":[{
			"attributes":{
				"POSITION":121,
				"NORMAL":122,
				"TEXCOORD_0":123
			},
			"indices":120,
			"material":0
		}]
	},
	{
		"name":"Section 24",
		"primitives":[{
			"attributes":{
				"POSITION":129,
				"NORMAL":130,
				"TEXCOORD_0":131
			},
			"indices":128,
			"material":0
		}]
	},
	{
		"name":"Section 25",
		"primitives":[{
			"attributes":{
				"POSITION":137,
				"NORMAL":138,
				"TEXCOORD_0":139
			},
			"indices":136,
			"material":0
		}]
	},
	{
		"name":"Section 26",
		"primitives":[{
			"attributes":{
				"POSITION":145,
				"NORMAL":146,
				"TEXCOORD_0":147
			},
			"indices":144,
			"material":0
		}]
	},
	{
		"name":"Section 27",
		"primitives":[{
			"attributes":{
				"POSITION":153,
				"NORMAL":154,
				"TEXCOORD_0":155
			},
			"indices":152,
			"material":0
		}]
	},
	{
		"name":"Section 28",
		"primitives":[{
			"attributes":{
				"POSITION":161,
				"NORMAL":162,
				"TEXCOORD_0":163
			},
			"indices":160,
			"material":0
		}]
	},
	{
		"name":"Section 29",
		"primitives":[{
			"attributes":{
				"POSITION":169,
				"NORMAL":170,
				"TEXCOORD_0":171
			},
			"indices":168,
			"material":0
		}]
	},
	{
		"name":"Section 30",
		"primitives":[{
			"attributes":{
				"POSITION":177,
				"NORMAL":178,
				"TEXCOORD_0":179
			},
			"indices":176,
			"material":0
		}]
	},
	{
		"name":"Section 31",
		"primitives":[{
			"attributes":{
				"POSITION":185,
				"NORMAL":186,
				"TEXCOORD_0":187
			},
			"indices":184,
			"material":0
		}]
	},
	{
		"name":"Section 32",
		"primitives":[{
			"attributes":{
				"POSITION":193,
				"NORMAL":194,
				"TEXCOORD_0":195
			},
			"indices":192,
			"material":0
		}]
	},
	{
		"name":"Section 33",
		"primitives":[{
			"attributes":{
				"POSITION":201,
				"NORMAL":202,
				"TEXCOORD_0":203
			},
			"indices":200,
			"material":0
		}]
	},
	{
		"name":"Section 34",
		"primitives":[{
			"attributes":{
				"POSITION":209,
				"NORMAL":210,
				"TEXCOORD_0":211
			},
			"indices":208,
			"material":0
		}]
	},
	{
		"name":"Section 35",
		"primitives":[{
			"attributes":{
				"POSITION":217,
				"NORMAL":218,
				"TEXCOORD_0":219
			},
			"indices":216,
			"material":0
		}]
	},
	{
		"name":"Section 36",
		"primitives":[{
			"attributes":{
				"POSITION":225,
				"NORMAL":226,
				"TEXCOORD_0":227
			},
			"indices":224,
			"material":0
		}]
	},
	{
		"name":"Section 37",
		"primitives":[{
			"attributes":{
				"POSITION":233,
				"NORMAL":234,
				"TEXCOORD_0":235
			},
			"indices":232,
			"material":0
		}]
	},
	{
		"name":"Section 38",
		"primitives":[{
			"attributes":{
				"POSITION":241,
				"NORMAL":242,
				"TEXCOORD_0":243
			},
			"indices":240,
			"material":0
		}]
	},
	{
		"name":"Section 39",
		"primitives":[{
			"attributes":{
				"POSITION":249,
				"NORMAL":250,
				"TEXCOORD_0":251
			},
			"indices":248,
			"material":0
		}]
	},
	{
		"name":"Section 40",
		"primitives":[{
			"attributes":{
				"POSITION":257,
				"NORMAL":258,
				"TEXCOORD_0":259
			},
			"indices":256,
			"material":0
		}]
	},
	{
		"name":"Section 41",
		"primitives":[{
			"attributes":{
				"POSITION":265,
				"NORMAL":266,
				"TEXCOORD_0":267
			},
			"indices":264,
			"material":0
		}]
	},
	{
		"name":"Section 42",
		"primitives":[{
			"attributes":{
				"POSITION":273,
				"NORMAL":274,
				"TEXCOORD_0":275
			},
			"indices":272,
			"material":0
		}]
	}],
	"accessors":[{
		"bufferView":0,
		"type":"SCALAR",
		"componentType":5123,
		"count":720,
		"byteOffset":0,
		"min":[0],
		"max":[719]
	},
	{
		"bufferView":1,
		"type":"VEC3",
		"componentType":5126,
		"count":720,
		"byteOffset":0,
		"min":[1.806071162223816,
		0.6944096088409424,
		-4.408562660217285],
		"max":[2.2122080326080324,
		0.9756650328636169,
		-3.9908905029296877]
	},
	{
		"bufferView":1,
		"type":"VEC3",
		"componentType":5126,
		"count":720,
		"byteOffset":12,
		"min":[-0.9902800917625427,
		-0.9881043434143066,
		-0.9913867115974426],
		"max":[0.9921777844429016,
		0.992734968662262,
		0.9920948147773743]
	},
	{
		"bufferView":1,
		"type":"VEC2",
		"componentType":5126,
		"count":720,
		"byteOffset":24,
		"min":[0.0,
		0.0],
		"max":[0.9982720613479614,
		1.0]
	},
	{
		"bufferView":2,
		"type":"SCALAR",
		"componentType":5123,
		"count":300,
		"byteOffset":0,
		"min":[0],
		"max":[299]
	},
	{
		"bufferView":3,
		"type":"VEC3",
		"componentType":5126,
		"count":300,
		"byteOffset":0,
		"min":[2.0318400859832765,
		0.7889148592948914,
		-4.056312084197998],
		"max":[2.25858473777771,
		1.0129542350769044,
		-3.844461679458618]
	},
	{
		"bufferView":3,
		"type":"VEC3",
		"componentType":5126,
		"count":300,
		"byteOffset":12,
		"min":[-0.984243631362915,
		-0.9988433122634888,
		-0.9859197735786438],
		"max":[0.9585270881652832,
		0.9905765652656555,
		0.9962487816810608]
	},
	{
		"bufferView":3,
		"type":"VEC2",
		"componentType":5126,
		"count":300,
		"byteOffset":24,
		"min":[0.0,
		0.0],
		"max":[0.9857050776481628,
		1.0]
	},
	{
		"bufferView":4,
		"type":"SCALAR",
		"componentType":5123,
		"count":300,
		"byteOffset":0,
		"min":[0],
		"max":[299]
	},
	{
		"bufferView":5,
		"type":"VEC3",
		"componentType":5126,
		"count":300,
		"byteOffset":0,
		"min":[2.0926170349121095,
		0.8116874694824219,
		-3.8991894721984865],
		"max":[2.319361448287964,
		1.03572678565979,
		-3.6873390674591066]
	},
	{
		"bufferView":5,
		"type":"VEC3",
		"componentType":5126,
		"count":300,
		"byteOffset":12,
		"min":[-0.984243631362915,
		-0.9988433122634888,
		-0.9859197735786438],
		"max":[0.9585270881652832,
		0.9905765652656555,
		0.9962487816810608]
	},
	{
		"bufferView":5,
		"type":"VEC2",
		"componentType":5126,
		"count":300,
		"byteOffset":24,
		"min":[0.0,
		0.0],
		"max":[0.9857050776481628,
		1.0]
	},
	{
		"bufferView":6,
		"type":"SCALAR",
		"componentType":5123,
		"count":300,
		"byteOffset":0,
		"min":[0],
		"max":[299]
	},
	{
		"bufferView":7,
		"type":"VEC3",
		"componentType":5126,
		"count":300,
		"byteOffset":0,
		"min":[2.1501517295837404,
		0.8339241743087769,
		-3.739189386367798],
		"max":[2.375356912612915,
		1.0580633878707886,
		-3.530198812484741]
	},
	{
		"bufferView":7,
		"type":"VEC3",
		"componentType":5126,
		"count":300,
		"byteOffset":12,
		"min":[-0.985133707523346,
		-0.9989069104194641,
		-0.9897141456604004],
		"max":[0.9537039995193481,
		0.9900485873222351,
		0.9956490993499756]
	},
	{
		"bufferView":7,
		"type":"VEC2",
		"componentType":5126,
		"count":300,
		"byteOffset":24,
		"min":[0.0,
		0.0],
		"max":[0.9857050776481628,
		1.0]
	},
	{
		"bufferView":8,
		"type":"SCALAR",
		"componentType":5123,
		"count":300,
		"byteOffset":0,
		"min":[0],
		"max":[299]
	},
	{
		"bufferView":9,
		"type":"VEC3",
		"componentType":5126,
		"count":300,
		"byteOffset":0,
		"min":[2.2035133838653566,
		0.8555711507797241,
		-3.577575445175171],
		"max":[2.4270806312561037,
		1.0798075199127198,
		-3.372040271759033]
	},
	{
		"bufferView":9,
		"type":"VEC3",
		"componentType":5126,
		"count":300,
		"byteOffset":12,
		"min":[-0.9878895878791809,
		-0.9989485740661621,
		-0.9932857155799866],
		"max":[0.9631036520004273,
		0.9893701672554016,
		0.9938859343528748]
	},
	{
		"bufferView":9,
		"type":"VEC2",
		"componentType":5126,
		"count":300,
		"byteOffset":24,
		"min":[0.0,
		0.0],
		"max":[0.9857050776481628,
		1.0]
	},
	{
		"bufferView":10,
		"type":"SCALAR",
		"componentType":5123,
		"count":300,
		"byteOffset":0,
		"min":[0],
		"max":[299]
	},
	{
		"bufferView":11,
		"type":"VEC3",
		"componentType":5126,
		"count":300,
		"byteOffset":0,
		"min":[2.2525057792663576,
		0.8765472173690796,
		-3.414489507675171],
		"max":[2.473743200302124,
		1.100866436958313,
		-3.2129578590393068]
	},
	{
		"bufferView":11,
		"type":"VEC3",
		"componentType":5126,
		"count":300,
		"byteOffset":12,
		"min":[-0.989853024482727,
		-0.9989506006240845,
		-0.9961506128311157],
		"max":[0.9732904434204102,
		0.9884690642356873,
		0.9901362061500549]
	},
	{
		"bufferView":11,
		"type":"VEC2",
		"componentType":5126,
		"count":300,
		"byteOffset":24,
		"min":[0.0,
		0.0],
		"max":[0.9857050776481628,
		1.0]
	},
	{
		"bufferView":12,
		"type":"SCALAR",
		"componentType":5123,
		"count":300,
		"byteOffset":0,
		"min":[0],
		"max":[299]
	},
	{
		"bufferView":13,
		"type":"VEC3",
		"componentType":5126,
		"count":300,
		"byteOffset":0,
		"min":[2.296452522277832,
		0.8967500925064087,
		-3.2491681575775148],
		"max":[2.514265298843384,
		1.1211140155792237,
		-3.0531363487243654]
	},
	{
		"bufferView":13,
		"type":"VEC3",
		"componentType":5126,
		"count":300,
		"byteOffset":12,
		"min":[-0.990027129650116,
		-0.9988827705383301,
		-0.9972911477088928],
		"max":[0.9838425517082214,
		0.9872403740882874,
		0.9857246279716492]
	},
	{
		"bufferView":13,
		"type":"VEC2",
		"componentType":5126,
		"count":300,
		"byteOffset":24,
		"min":[0.0,
		0.0],
		"max":[0.9857050776481628,
		1.0]
	},
	{
		"bufferView":14,
		"type":"SCALAR",
		"componentType":5123,
		"count":300,
		"byteOffset":0,
		"min":[0],
		"max":[299]
	},
	{
		"bufferView":15,
		"type":"VEC3",
		"componentType":5126,
		"count":300,
		"byteOffset":0,
		"min":[2.332367420196533,
		0.9157097935676575,
		-3.0840904712677],
		"max":[2.550180196762085,
		1.1400737762451172,
		-2.888058662414551]
	},
	{
		"bufferView":15,
		"type":"VEC3",
		"componentType":5126,
		"count":300,
		"byteOffset":12,
		"min":[-0.990027129650116,
		-0.9988827705383301,
		-0.9972911477088928],
		"max":[0.9838425517082214,
		0.9872403740882874,
		0.9857246279716492]
	},
	{
		"bufferView":15,
		"type":"VEC2",
		"componentType":5126,
		"count":300,
		"byteOffset":24,
		"min":[0.0,
		0.0],
		"max":[0.9857050776481628,
		1.0]
	},
	{
		"bufferView":16,
		"type":"SCALAR",
		"componentType":5123,
		"count":300,
		"byteOffset":0,
		"min":[0],
		"max":[299]
	},
	{
		"bufferView":17,
		"type":"VEC3",
		"componentType":5126,
		"count":300,
		"byteOffset":0,
		"min":[2.3593318462371828,
		0.9333285689353943,
		-2.913830518722534],
		"max":[2.5718994140625,
		1.1576499938964844,
		-2.725663185119629]
	},
	{
		"bufferView":17,
		"type":"VEC3",
		"componentType":5126,
		"count":300,
		"byteOffset":12,
		"min":[-0.9863835573196411,
		-0.998683512210846,
		-0.9963721036911011],
		"max":[0.9936102032661438,
		0.985561728477478,
		0.9933030605316162]
	},
	{
		"bufferView":17,
		"type":"VEC2",
		"componentType":5126,
		"count":300,
		"byteOffset":24,
		"min":[0.0,
		0.0],
		"max":[0.9857050776481628,
		1.0]
	},
	{
		"bufferView":18,
		"type":"SCALAR",
		"componentType":5123,
		"count":300,
		"byteOffset":0,
		"min":[0],
		"max":[299]
	},
	{
		"bufferView":19,
		"type":"VEC3",
		"componentType":5126,
		"count":300,
		"byteOffset":0,
		"min":[2.3711318969726564,
		0.9493757486343384,
		-2.7405636310577394],
		"max":[2.5802812576293947,
		1.1734644174575806,
		-2.564093828201294]
	},
	{
		"bufferView":19,
		"type":"VEC3",
		"componentType":5126,
		"count":300,
		"byteOffset":12,
		"min":[-0.9933300018310547,
		-0.9982417225837708,
		-0.9966055154800415],
		"max":[0.9995794296264648,
		0.9853702783584595,
		0.9961308240890503]
	},
	{
		"bufferView":19,
		"type":"VEC2",
		"componentType":5126,
		"count":300,
		"byteOffset":24,
		"min":[0.0,
		0.0],
		"max":[0.9857050776481628,
		1.0]
	},
	{
		"bufferView":20,
		"type":"SCALAR",
		"componentType":5123,
		"count":300,
		"byteOffset":0,
		"min":[0],
		"max":[299]
	},
	{
		"bufferView":21,
		"type":"VEC3",
		"componentType":5126,
		"count":300,
		"byteOffset":0,
		"min":[2.3675379753112795,
		0.9635124802589417,
		-2.565523147583008],
		"max":[2.5791656970977785,
		1.1869699954986573,
		-2.3932337760925295]
	},
	{
		"bufferView":21,
		"type":"VEC3",
		"componentType":5126,
		"count":300,
		"byteOffset":12,
		"min":[-0.9906308054924011,
		-0.9973574280738831,
		-0.9972527623176575],
		"max":[0.9945987462997437,
		0.9850473403930664,
		0.9942687153816223]
	},
	{
		"bufferView":21,
		"type":"VEC2",
		"componentType":5126,
		"count":300,
		"byteOffset":24,
		"min":[0.0,
		0.0],
		"max":[0.9857050776481628,
		1.0]
	},
	{
		"bufferView":22,
		"type":"SCALAR",
		"componentType":5123,
		"count":300,
		"byteOffset":0,
		"min":[0],
		"max":[299]
	},
	{
		"bufferView":23,
		"type":"VEC3",
		"componentType":5126,
		"count":300,
		"byteOffset":0,
		"min":[2.3415844440460207,
		0.9753848910331726,
		-2.4063234329223635],
		"max":[2.5648245811462404,
		1.1974537372589112,
		-2.211040735244751]
	},
	{
		"bufferView":23,
		"type":"VEC3",
		"componentType":5126,
		"count":300,
		"byteOffset":12,
		"min":[-0.9748923182487488,
		-0.9957545399665833,
		-0.9822030663490295],
		"max":[0.9833728075027466,
		0.9845776557922363,
		0.9932460188865662]
	},
	{
		"bufferView":23,
		"type":"VEC2",
		"componentType":5126,
		"count":300,
		"byteOffset":24,
		"min":[0.0,
		0.0],
		"max":[0.9857050776481628,
		1.0]
	},
	{
		"bufferView":24,
		"type":"SCALAR",
		"componentType":5123,
		"count":300,
		"byteOffset":0,
		"min":[0],
		"max":[299]
	},
	{
		"bufferView":25,
		"type":"VEC3",
		"componentType":5126,
		"count":300,
		"byteOffset":0,
		"min":[2.302161931991577,
		0.9827719330787659,
		-2.2411227226257326],
		"max":[2.525402069091797,
		1.2048406600952149,
		-2.045839786529541]
	},
	{
		"bufferView":25,
		"type":"VEC3",
		"componentType":5126,
		"count":300,
		"byteOffset":12,
		"min":[-0.9748923182487488,
		-0.9957545399665833,
		-0.9822030663490295],
		"max":[0.9833728075027466,
		0.9845776557922363,
		0.9932460188865662]
	},
	{
		"bufferView":25,
		"type":"VEC2",
		"componentType":5126,
		"count":300,
		"byteOffset":24,
		"min":[0.0,
		0.0],
		"max":[0.9857050776481628,
		1.0]
	},
	{
		"bufferView":26,
		"type":"SCALAR",
		"componentType":5123,
		"count":300,
		"byteOffset":0,
		"min":[0],
		"max":[299]
	},
	{
		"bufferView":27,
		"type":"VEC3",
		"componentType":5126,
		"count":300,
		"byteOffset":0,
		"min":[2.222810745239258,
		0.9852466583251953,
		-2.0953452587127687],
		"max":[2.461892604827881,
		1.2061711549758912,
		-1.8783801794052125]
	},
	{
		"bufferView":27,
		"type":"VEC3",
		"componentType":5126,
		"count":300,
		"byteOffset":12,
		"min":[-0.9865239858627319,
		-0.9933170676231384,
		-0.9462946653366089],
		"max":[0.9748502373695374,
		0.9840934872627258,
		0.9972614049911499]
	},
	{
		"bufferView":27,
		"type":"VEC2",
		"componentType":5126,
		"count":300,
		"byteOffset":24,
		"min":[0.0,
		0.0],
		"max":[0.9857050776481628,
		1.0]
	},
	{
		"bufferView":28,
		"type":"SCALAR",
		"componentType":5123,
		"count":300,
		"byteOffset":0,
		"min":[0],
		"max":[299]
	},
	{
		"bufferView":29,
		"type":"VEC3",
		"componentType":5126,
		"count":300,
		"byteOffset":0,
		"min":[2.1244752407073976,
		0.9823612570762634,
		-1.9603503942489625],
		"max":[2.369516372680664,
		1.2046993970870972,
		-1.7300379276275635]
	},
	{
		"bufferView":29,
		"type":"VEC3",
		"componentType":5126,
		"count":300,
		"byteOffset":12,
		"min":[-0.9938884377479553,
		-0.99065101146698,
		-0.992962121963501],
		"max":[0.9971030354499817,
		0.9882512092590332,
		0.992792010307312]
	},
	{
		"bufferView":29,
		"type":"VEC2",
		"componentType":5126,
		"count":300,
		"byteOffset":24,
		"min":[0.0,
		0.0],
		"max":[0.9857050776481628,
		1.0]
	},
	{
		"bufferView":30,
		"type":"SCALAR",
		"componentType":5123,
		"count":300,
		"byteOffset":0,
		"min":[0],
		"max":[299]
	},
	{
		"bufferView":31,
		"type":"VEC3",
		"componentType":5126,
		"count":300,
		"byteOffset":0,
		"min":[2.0118205547332765,
		0.9774374961853027,
		-1.8368891477584839],
		"max":[2.253061294555664,
		1.201026439666748,
		-1.6031359434127808]
	},
	{
		"bufferView":31,
		"type":"VEC3",
		"componentType":5126,
		"count":300,
		"byteOffset":12,
		"min":[-0.9903203248977661,
		-0.9889538884162903,
		-0.9958764314651489],
		"max":[0.9862523674964905,
		0.9909955859184265,
		0.9920163154602051]
	},
	{
		"bufferView":31,
		"type":"VEC2",
		"componentType":5126,
		"count":300,
		"byteOffset":24,
		"min":[0.0,
		0.0],
		"max":[0.9857050776481628,
		1.0]
	},
	{
		"bufferView":32,
		"type":"SCALAR",
		"componentType":5123,
		"count":300,
		"byteOffset":0,
		"min":[0],
		"max":[299]
	},
	{
		"bufferView":33,
		"type":"VEC3",
		"componentType":5126,
		"count":300,
		"byteOffset":0,
		"min":[1.8866026401519776,
		0.9714635610580444,
		-1.7265323400497437],
		"max":[2.1210291385650636,
		1.1948529481887818,
		-1.4937779903411866]
	},
	{
		"bufferView":33,
		"type":"VEC3",
		"componentType":5126,
		"count":300,
		"byteOffset":12,
		"min":[-0.9877980947494507,
		-0.9889046549797058,
		-0.9816793203353882],
		"max":[0.9742392897605896,
		0.9915573596954346,
		0.9916162490844727]
	},
	{
		"bufferView":33,
		"type":"VEC2",
		"componentType":5126,
		"count":300,
		"byteOffset":24,
		"min":[0.0,
		0.0],
		"max":[0.9857050776481628,
		1.0]
	},
	{
		"bufferView":34,
		"type":"SCALAR",
		"componentType":5123,
		"count":300,
		"byteOffset":0,
		"min":[0],
		"max":[299]
	},
	{
		"bufferView":35,
		"type":"VEC3",
		"componentType":5126,
		"count":300,
		"byteOffset":0,
		"min":[1.7481873035430909,
		0.964903712272644,
		-1.628053069114685],
		"max":[1.9826138019561768,
		1.1882930994033814,
		-1.395298719406128]
	},
	{
		"bufferView":35,
		"type":"VEC3",
		"componentType":5126,
		"count":300,
		"byteOffset":12,
		"min":[-0.9877980947494507,
		-0.9889046549797058,
		-0.9816793203353882],
		"max":[0.9742392897605896,
		0.9915573596954346,
		0.9916162490844727]
	},
	{
		"bufferView":35,
		"type":"VEC2",
		"componentType":5126,
		"count":300,
		"byteOffset":24,
		"min":[0.0,
		0.0],
		"max":[0.9857050776481628,
		1.0]
	},
	{
		"bufferView":36,
		"type":"SCALAR",
		"componentType":5123,
		"count":300,
		"byteOffset":0,
		"min":[0],
		"max":[299]
	},
	{
		"bufferView":37,
		"type":"VEC3",
		"componentType":5126,
		"count":300,
		"byteOffset":0,
		"min":[1.6090415716171265,
		0.9608988761901856,
		-1.535742163658142],
		"max":[1.8390462398529053,
		1.1830008029937745,
		-1.3032190799713135]
	},
	{
		"bufferView":37,
		"type":"VEC3",
		"componentType":5126,
		"count":300,
		"byteOffset":12,
		"min":[-0.9909998178482056,
		-0.9904153943061829,
		-0.978947639465332],
		"max":[0.9681839942932129,
		0.990143895149231,
		0.9903620481491089]
	},
	{
		"bufferView":37,
		"type":"VEC2",
		"componentType":5126,
		"count":300,
		"byteOffset":24,
		"min":[0.0,
		0.0],
		"max":[0.9857050776481628,
		1.0]
	},
	{
		"bufferView":38,
		"type":"SCALAR",
		"componentType":5126,
		"count":91,
		"byteOffset":0,
		"min":[0.0],
		"max":[3.0]
	},
	{
		"bufferView":38,
		"type":"VEC4",
		"componentType":5126,
		"count":91,
		"byteOffset":364,
		"min":[0.0,
		0.0,
		0.0,
		-1.0],
		"max":[0.5,
		0.5,
		0.5,
		-0.5]
	},
	{
		"bufferView":39,
		"type":"SCALAR",
		"componentType":5126,
		"count":91,
		"byteOffset":0,
		"min":[0.0],
		"max":[3.0]
	},
	{
		"bufferView":39,
		"type":"VEC3",
		"componentType":5126,
		"count":91,
		"byteOffset":364,
		"min":[0.0,
		0.0,
		0.0],
		"max":[1.0,
		1.0,
		1.0]
	},
	{
		"bufferView":40,
		"type":"SCALAR",
		"componentType":5123,
		"count":300,
		"byteOffset":0,
		"min":[0],
		"max":[299]
	},
	{
		"bufferView":41,
		"type":"VEC3",
		"componentType":5126,
		"count":300,
		"byteOffset":0,
		"min":[1.4699169397354127,
		0.9606315493583679,
		-1.4424629211425782],
		"max":[1.699583649635315,
		1.180230736732483,
		-1.2075108289718629]
	},
	{
		"bufferView":41,
		"type":"VEC3",
		"componentType":5126,
		"count":300,
		"byteOffset":12,
		"min":[-0.9924843907356262,
		-0.9930247068405151,
		-0.9797755479812622],
		"max":[0.9758095145225525,
		0.9864402413368225,
		0.98888099193573]
	},
	{
		"bufferView":41,
		"type":"VEC2",
		"componentType":5126,
		"count":300,
		"byteOffset":24,
		"min":[0.0,
		0.0],
		"max":[0.9857050776481628,
		1.0]
	},
	{
		"bufferView":42,
		"type":"SCALAR",
		"componentType":5126,
		"count":91,
		"byteOffset":0,
		"min":[0.0],
		"max":[3.0]
	},
	{
		"bufferView":42,
		"type":"VEC4",
		"componentType":5126,
		"count":91,
		"byteOffset":364,
		"min":[0.0,
		0.0,
		0.0,
		-1.0],
		"max":[0.5,
		0.5,
		0.5,
		-0.5]
	},
	{
		"bufferView":43,
		"type":"SCALAR",
		"componentType":5126,
		"count":91,
		"byteOffset":0,
		"min":[0.0],
		"max":[3.0]
	},
	{
		"bufferView":43,
		"type":"VEC3",
		"componentType":5126,
		"count":91,
		"byteOffset":364,
		"min":[0.0,
		0.0,
		0.0],
		"max":[1.0,
		1.0,
		1.0]
	},
	{
		"bufferView":44,
		"type":"SCALAR",
		"componentType":5123,
		"count":300,
		"byteOffset":0,
		"min":[0],
		"max":[299]
	},
	{
		"bufferView":45,
		"type":"VEC3",
		"componentType":5126,
		"count":300,
		"byteOffset":0,
		"min":[1.3351173400878907,
		0.9641689658164978,
		-1.3432953357696534],
		"max":[1.5673494338989258,
		1.184615135192871,
		-1.104306936264038]
	},
	{
		"bufferView":45,
		"type":"VEC3",
		"componentType":5126,
		"count":300,
		"byteOffset":12,
		"min":[-0.9964134097099304,
		-0.995999276638031,
		-0.9942721724510193],
		"max":[0.991310715675354,
		0.9863138198852539,
		0.9845394492149353]
	},
	{
		"bufferView":45,
		"type":"VEC2",
		"componentType":5126,
		"count":300,
		"byteOffset":24,
		"min":[0.0,
		0.0],
		"max":[0.9857050776481628,
		1.0]
	},
	{
		"bufferView":46,
		"type":"SCALAR",
		"componentType":5126,
		"count":91,
		"byteOffset":0,
		"min":[0.0],
		"max":[3.0]
	},
	{
		"bufferView":46,
		"type":"VEC4",
		"componentType":5126,
		"count":91,
		"byteOffset":364,
		"min":[0.0,
		0.0,
		0.0,
		-1.0],
		"max":[0.5,
		0.5,
		0.5,
		-0.5]
	},
	{
		"bufferView":47,
		"type":"SCALAR",
		"componentType":5126,
		"count":91,
		"byteOffset":0,
		"min":[0.0],
		"max":[3.0]
	},
	{
		"bufferView":47,
		"type":"VEC3",
		"componentType":5126,
		"count":91,
		"byteOffset":364,
		"min":[0.0,
		0.0,
		0.0],
		"max":[1.0,
		1.0,
		1.0]
	},
	{
		"bufferView":48,
		"type":"SCALAR",
		"componentType":5123,
		"count":300,
		"byteOffset":0,
		"min":[0],
		"max":[299]
	},
	{
		"bufferView":49,
		"type":"VEC3",
		"componentType":5126,
		"count":300,
		"byteOffset":0,
		"min":[1.209403395652771,
		0.9703287482261658,
		-1.233548879623413],
		"max":[1.4428966045379639,
		1.193924903869629,
		-0.9925856590270996]
	},
	{
		"bufferView":49,
		"type":"VEC3",
		"componentType":5126,
		"count":300,
		"byteOffset":12,
		"min":[-0.9944159388542175,
		-0.9978722929954529,
		-0.9998646378517151],
		"max":[0.9969997406005859,
		0.9854599237442017,
		0.9930957555770874]
	},
	{
		"bufferView":49,
		"type":"VEC2",
		"componentType":5126,
		"count":300,
		"byteOffset":24,
		"min":[0.0,
		0.0],
		"max":[0.9857050776481628,
		1.0]
	},
	{
		"bufferView":50,
		"type":"SCALAR",
		"componentType":5126,
		"count":91,
		"byteOffset":0,
		"min":[0.0],
		"max":[3.0]
	},
	{
		"bufferView":50,
		"type":"VEC4",
		"componentType":5126,
		"count":91,
		"byteOffset":364,
		"min":[0.0,
		0.0,
		0.0,
		-1.0],
		"max":[0.5,
		0.5,
		0.5,
		-0.5]
	},
	{
		"bufferView":51,
		"type":"SCALAR",
		"componentType":5126,
		"count":91,
		"byteOffset":0,
		"min":[0.0],
		"max":[3.0]
	},
	{
		"bufferView":51,
		"type":"VEC3",
		"componentType":5126,
		"count":91,
		"byteOffset":364,
		"min":[0.0,
		0.0,
		0.0],
		"max":[1.0,
		1.0,
		1.0]
	},
	{
		"bufferView":52,
		"type":"SCALAR",
		"componentType":5123,
		"count":300,
		"byteOffset":0,
		"min":[0],
		"max":[299]
	},
	{
		"bufferView":53,
		"type":"VEC3",
		"componentType":5126,
		"count":300,
		"byteOffset":0,
		"min":[1.0927656888961793,
		0.9834117889404297,
		-1.110567331314087],
		"max":[1.326258897781372,
		1.207007884979248,
		-0.8696040511131287]
	},
	{
		"bufferView":53,
		"type":"VEC3",
		"componentType":5126,
		"count":300,
		"byteOffset":12,
		"min":[-0.9944159388542175,
		-0.9978722929954529,
		-0.9998646378517151],
		"max":[0.9969997406005859,
		0.9854599237442017,
		0.9930957555770874]
	},
	{
		"bufferView":53,
		"type":"VEC2",
		"componentType":5126,
		"count":300,
		"byteOffset":24,
		"min":[0.0,
		0.0],
		"max":[0.9857050776481628,
		1.0]
	},
	{
		"bufferView":54,
		"type":"SCALAR",
		"componentType":5126,
		"count":91,
		"byteOffset":0,
		"min":[0.0],
		"max":[3.0]
	},
	{
		"bufferView":54,
		"type":"VEC4",
		"componentType":5126,
		"count":91,
		"byteOffset":364,
		"min":[0.0,
		0.0,
		0.0,
		-1.0],
		"max":[0.5,
		0.5,
		0.5,
		-0.5]
	},
	{
		"bufferView":55,
		"type":"SCALAR",
		"componentType":5126,
		"count":91,
		"byteOffset":0,
		"min":[0.0],
		"max":[3.0]
	},
	{
		"bufferView":55,
		"type":"VEC3",
		"componentType":5126,
		"count":91,
		"byteOffset":364,
		"min":[0.0,
		0.0,
		0.0],
		"max":[1.0,
		1.0,
		1.0]
	},
	{
		"bufferView":56,
		"type":"SCALAR",
		"componentType":5123,
		"count":300,
		"byteOffset":0,
		"min":[0],
		"max":[299]
	},
	{
		"bufferView":57,
		"type":"VEC3",
		"componentType":5126,
		"count":300,
		"byteOffset":0,
		"min":[0.9569201469421387,
		0.9918546080589294,
		-1.009583830833435],
		"max":[1.184112310409546,
		1.2135587930679322,
		-0.7703753113746643]
	},
	{
		"bufferView":57,
		"type":"VEC3",
		"componentType":5126,
		"count":300,
		"byteOffset":12,
		"min":[-0.9941301941871643,
		-0.9961041808128357,
		-0.9851589202880859],
		"max":[0.9840381741523743,
		0.9852913022041321,
		0.9836368560791016]
	},
	{
		"bufferView":57,
		"type":"VEC2",
		"componentType":5126,
		"count":300,
		"byteOffset":24,
		"min":[0.0,
		0.0],
		"max":[0.9857050776481628,
		1.0]
	},
	{
		"bufferView":58,
		"type":"SCALAR",
		"componentType":5126,
		"count":91,
		"byteOffset":0,
		"min":[0.0],
		"max":[3.0]
	},
	{
		"bufferView":58,
		"type":"VEC4",
		"componentType":5126,
		"count":91,
		"byteOffset":364,
		"min":[0.0,
		0.0,
		0.0,
		-1.0],
		"max":[0.5,
		0.5,
		0.5,
		-0.5]
	},
	{
		"bufferView":59,
		"type":"SCALAR",
		"componentType":5126,
		"count":91,
		"byteOffset":0,
		"min":[0.0],
		"max":[3.0]
	},
	{
		"bufferView":59,
		"type":"VEC3",
		"componentType":5126,
		"count":91,
		"byteOffset":364,
		"min":[0.0,
		0.0,
		0.0],
		"max":[1.0,
		1.0,
		1.0]
	},
	{
		"bufferView":60,
		"type":"SCALAR",
		"componentType":5123,
		"count":300,
		"byteOffset":0,
		"min":[0],
		"max":[299]
	},
	{
		"bufferView":61,
		"type":"VEC3",
		"componentType":5126,
		"count":300,
		"byteOffset":0,
		"min":[0.8123856782913208,
		0.9934097528457642,
		-0.9302250146865845],
		"max":[1.0235649347305298,
		1.2138876914978028,
		-0.7007927298545837]
	},
	{
		"bufferView":61,
		"type":"VEC3",
		"componentType":5126,
		"count":300,
		"byteOffset":12,
		"min":[-0.99797123670578,
		-0.9928849339485169,
		-0.9851511716842651],
		"max":[0.9820879101753235,
		0.9851369857788086,
		0.9684125185012817]
	},
	{
		"bufferView":61,
		"type":"VEC2",
		"componentType":5126,
		"count":300,
		"byteOffset":24,
		"min":[0.0,
		0.0],
		"max":[0.9857050776481628,
		1.0]
	},
	{
		"bufferView":62,
		"type":"SCALAR",
		"componentType":5126,
		"count":91,
		"byteOffset":0,
		"min":[0.0],
		"max":[3.0]
	},
	{
		"bufferView":62,
		"type":"VEC4",
		"componentType":5126,
		"count":91,
		"byteOffset":364,
		"min":[0.0,
		0.0,
		0.0,
		-1.0],
		"max":[0.5,
		0.5,
		0.5,
		-0.5]
	},
	{
		"bufferView":63,
		"type":"SCALAR",
		"componentType":5126,
		"count":91,
		"byteOffset":0,
		"min":[0.0],
		"max":[3.0]
	},
	{
		"bufferView":63,
		"type":"VEC3",
		"componentType":5126,
		"count":91,
		"byteOffset":364,
		"min":[0.0,
		0.0,
		0.0],
		"max":[1.0,
		1.0,
		1.0]
	},
	{
		"bufferView":64,
		"type":"SCALAR",
		"componentType":5123,
		"count":300,
		"byteOffset":0,
		"min":[0],
		"max":[299]
	},
	{
		"bufferView":65,
		"type":"VEC3",
		"componentType":5126,
		"count":300,
		"byteOffset":0,
		"min":[0.6621269583702087,
		0.989544689655304,
		-0.8769612312316895],
		"max":[0.8559238314628601,
		1.212416410446167,
		-0.6576367020606995]
	},
	{
		"bufferView":65,
		"type":"VEC3",
		"componentType":5126,
		"count":300,
		"byteOffset":12,
		"min":[-0.9884136915206909,
		-0.9898853898048401,
		-0.990462064743042],
		"max":[0.9974663853645325,
		0.9898641109466553,
		0.9801750779151917]
	},
	{
		"bufferView":65,
		"type":"VEC2",
		"componentType":5126,
		"count":300,
		"byteOffset":24,
		"min":[0.0,
		0.0],
		"max":[0.9857050776481628,
		1.0]
	},
	{
		"bufferView":66,
		"type":"SCALAR",
		"componentType":5126,
		"count":91,
		"byteOffset":0,
		"min":[0.0],
		"max":[3.0]
	},
	{
		"bufferView":66,
		"type":"VEC4",
		"componentType":5126,
		"count":91,
		"byteOffset":364,
		"min":[0.0,
		0.0,
		0.0,
		-1.0],
		"max":[0.5,
		0.5,
		0.5,
		-0.5]
	},
	{
		"bufferView":67,
		"type":"SCALAR",
		"componentType":5126,
		"count":91,
		"byteOffset":0,
		"min":[0.0],
		"max":[3.0]
	},
	{
		"bufferView":67,
		"type":"VEC3",
		"componentType":5126,
		"count":91,
		"byteOffset":364,
		"min":[0.0,
		0.0,
		0.0],
		"max":[1.0,
		1.0,
		1.0]
	},
	{
		"bufferView":68,
		"type":"SCALAR",
		"componentType":5123,
		"count":300,
		"byteOffset":0,
		"min":[0],
		"max":[299]
	},
	{
		"bufferView":69,
		"type":"VEC3",
		"componentType":5126,
		"count":300,
		"byteOffset":0,
		"min":[0.5097257494926453,
		0.9828248620033264,
		-0.8496943712234497],
		"max":[0.6800610423088074,
		1.2072898149490357,
		-0.6403203010559082]
	},
	{
		"bufferView":69,
		"type":"VEC3",
		"componentType":5126,
		"count":300,
		"byteOffset":12,
		"min":[-0.998030960559845,
		-0.9872932434082031,
		-0.9935482740402222],
		"max":[0.9956026077270508,
		0.9930930137634277,
		0.9995431900024414]
	},
	{
		"bufferView":69,
		"type":"VEC2",
		"componentType":5126,
		"count":300,
		"byteOffset":24,
		"min":[0.0,
		0.0],
		"max":[0.9857050776481628,
		1.0]
	},
	{
		"bufferView":70,
		"type":"SCALAR",
		"componentType":5126,
		"count":91,
		"byteOffset":0,
		"min":[0.0],
		"max":[3.0]
	},
	{
		"bufferView":70,
		"type":"VEC4",
		"componentType":5126,
		"count":91,
		"byteOffset":364,
		"min":[0.0,
		0.0,
		0.0,
		-1.0],
		"max":[0.5,
		0.5,
		0.5,
		-0.5]
	},
	{
		"bufferView":71,
		"type":"SCALAR",
		"componentType":5126,
		"count":91,
		"byteOffset":0,
		"min":[0.0],
		"max":[3.0]
	},
	{
		"bufferView":71,
		"type":"VEC3",
		"componentType":5126,
		"count":91,
		"byteOffset":364,
		"min":[0.0,
		0.0,
		0.0],
		"max":[1.0,
		1.0,
		1.0]
	},
	{
		"bufferView":72,
		"type":"SCALAR",
		"componentType":5123,
		"count":300,
		"byteOffset":0,
		"min":[0],
		"max":[299]
	},
	{
		"bufferView":73,
		"type":"VEC3",
		"componentType":5126,
		"count":300,
		"byteOffset":0,
		"min":[0.3288707733154297,
		0.9737187027931213,
		-0.8522489070892334],
		"max":[0.5099846124649048,
		1.1986303329467774,
		-0.6372398138046265]
	},
	{
		"bufferView":73,
		"type":"VEC3",
		"componentType":5126,
		"count":300,
		"byteOffset":12,
		"min":[-0.9995264410972595,
		-0.9852491617202759,
		-0.9816158413887024],
		"max":[0.9939667582511902,
		0.9953961968421936,
		0.9839254021644592]
	},
	{
		"bufferView":73,
		"type":"VEC2",
		"componentType":5126,
		"count":300,
		"byteOffset":24,
		"min":[0.0,
		0.0],
		"max":[0.9857050776481628,
		1.0]
	},
	{
		"bufferView":74,
		"type":"SCALAR",
		"componentType":5126,
		"count":91,
		"byteOffset":0,
		"min":[0.0],
		"max":[3.0]
	},
	{
		"bufferView":74,
		"type":"VEC4",
		"componentType":5126,
		"count":91,
		"byteOffset":364,
		"min":[0.0,
		0.0,
		0.0,
		-1.0],
		"max":[0.5,
		0.5,
		0.5,
		-0.5]
	},
	{
		"bufferView":75,
		"type":"SCALAR",
		"componentType":5126,
		"count":91,
		"byteOffset":0,
		"min":[0.0],
		"max":[3.0]
	},
	{
		"bufferView":75,
		"type":"VEC3",
		"componentType":5126,
		"count":91,
		"byteOffset":364,
		"min":[0.0,
		0.0,
		0.0],
		"max":[1.0,
		1.0,
		1.0]
	},
	{
		"bufferView":76,
		"type":"SCALAR",
		"componentType":5123,
		"count":300,
		"byteOffset":0,
		"min":[0],
		"max":[299]
	},
	{
		"bufferView":77,
		"type":"VEC3",
		"componentType":5126,
		"count":300,
		"byteOffset":0,
		"min":[0.16105355322360993,
		0.9617415070533752,
		-0.8766195178031921],
		"max":[0.34216737747192385,
		1.1866531372070313,
		-0.66161048412323]
	},
	{
		"bufferView":77,
		"type":"VEC3",
		"componentType":5126,
		"count":300,
		"byteOffset":12,
		"min":[-0.9995264410972595,
		-0.9852491617202759,
		-0.9816158413887024],
		"max":[0.9939667582511902,
		0.9953961968421936,
		0.9839254021644592]
	},
	{
		"bufferView":77,
		"type":"VEC2",
		"componentType":5126,
		"count":300,
		"byteOffset":24,
		"min":[0.0,
		0.0],
		"max":[0.9857050776481628,
		1.0]
	},
	{
		"bufferView":78,
		"type":"SCALAR",
		"componentType":5126,
		"count":91,
		"byteOffset":0,
		"min":[0.0],
		"max":[3.0]
	},
	{
		"bufferView":78,
		"type":"VEC4",
		"componentType":5126,
		"count":91,
		"byteOffset":364,
		"min":[0.0,
		0.0,
		0.0,
		-1.0],
		"max":[0.5,
		0.5,
		0.5,
		-0.5]
	},
	{
		"bufferView":79,
		"type":"SCALAR",
		"componentType":5126,
		"count":91,
		"byteOffset":0,
		"min":[0.0],
		"max":[3.0]
	},
	{
		"bufferView":79,
		"type":"VEC3",
		"componentType":5126,
		"count":91,
		"byteOffset":364,
		"min":[0.0,
		0.0,
		0.0],
		"max":[1.0,
		1.0,
		1.0]
	},
	{
		"bufferView":80,
		"type":"SCALAR",
		"componentType":5123,
		"count":300,
		"byteOffset":0,
		"min":[0],
		"max":[299]
	},
	{
		"bufferView":81,
		"type":"VEC3",
		"componentType":5126,
		"count":300,
		"byteOffset":0,
		"min":[-0.010339006781578064,
		0.9483500719070435,
		-0.9486883282661438],
		"max":[0.19467608630657197,
		1.1721760034561158,
		-0.7127700448036194]
	},
	{
		"bufferView":81,
		"type":"VEC3",
		"componentType":5126,
		"count":300,
		"byteOffset":12,
		"min":[-0.9991357326507568,
		-0.9877170920372009,
		-0.9825648665428162],
		"max":[0.9621478319168091,
		0.9967571496963501,
		0.9642442464828491]
	},
	{
		"bufferView":81,
		"type":"VEC2",
		"componentType":5126,
		"count":300,
		"byteOffset":24,
		"min":[0.0,
		0.0],
		"max":[0.9857050776481628,
		1.0]
	},
	{
		"bufferView":82,
		"type":"SCALAR",
		"componentType":5126,
		"count":91,
		"byteOffset":0,
		"min":[0.0],
		"max":[3.0]
	},
	{
		"bufferView":82,
		"type":"VEC4",
		"componentType":5126,
		"count":91,
		"byteOffset":364,
		"min":[0.0,
		0.0,
		0.0,
		-1.0],
		"max":[0.5,
		0.5,
		0.5,
		-0.5]
	},
	{
		"bufferView":83,
		"type":"SCALAR",
		"componentType":5126,
		"count":91,
		"byteOffset":0,
		"min":[0.0],
		"max":[3.0]
	},
	{
		"bufferView":83,
		"type":"VEC3",
		"componentType":5126,
		"count":91,
		"byteOffset":364,
		"min":[0.0,
		0.0,
		0.0],
		"max":[1.0,
		1.0,
		1.0]
	},
	{
		"bufferView":84,
		"type":"SCALAR",
		"componentType":5123,
		"count":300,
		"byteOffset":0,
		"min":[0],
		"max":[299]
	},
	{
		"bufferView":85,
		"type":"VEC3",
		"componentType":5126,
		"count":300,
		"byteOffset":0,
		"min":[-0.1546202003955841,
		0.9355002641677856,
		-1.0483651161193848],
		"max":[0.06387034058570862,
		1.1556705236434937,
		-0.8060336709022522]
	},
	{
		"bufferView":85,
		"type":"VEC3",
		"componentType":5126,
		"count":300,
		"byteOffset":12,
		"min":[-0.9969305992126465,
		-0.9917239546775818,
		-0.9873327612876892],
		"max":[0.9877590537071228,
		0.9962157607078552,
		0.9919534921646118]
	},
	{
		"bufferView":85,
		"type":"VEC2",
		"componentType":5126,
		"count":300,
		"byteOffset":24,
		"min":[0.0,
		0.0],
		"max":[0.9857050776481628,
		1.0]
	},
	{
		"bufferView":86,
		"type":"SCALAR",
		"componentType":5126,
		"count":91,
		"byteOffset":0,
		"min":[0.0],
		"max":[3.0]
	},
	{
		"bufferView":86,
		"type":"VEC4",
		"componentType":5126,
		"count":91,
		"byteOffset":364,
		"min":[0.0,
		0.0,
		0.0,
		-1.0],
		"max":[0.5,
		0.5,
		0.5,
		-0.5]
	},
	{
		"bufferView":87,
		"type":"SCALAR",
		"componentType":5126,
		"count":91,
		"byteOffset":0,
		"min":[0.0],
		"max":[3.0]
	},
	{
		"bufferView":87,
		"type":"VEC3",
		"componentType":5126,
		"count":91,
		"byteOffset":364,
		"min":[0.0,
		0.0,
		0.0],
		"max":[1.0,
		1.0,
		1.0]
	},
	{
		"bufferView":88,
		"type":"SCALAR",
		"componentType":5123,
		"count":300,
		"byteOffset":0,
		"min":[0],
		"max":[299]
	},
	{
		"bufferView":89,
		"type":"VEC3",
		"componentType":5126,
		"count":300,
		"byteOffset":0,
		"min":[-0.25213104486465456,
		0.9246238470077515,
		-1.1634713411331177],
		"max":[-0.04367590695619583,
		1.1383674144744874,
		-0.9485013484954834]
	},
	{
		"bufferView":89,
		"type":"VEC3",
		"componentType":5126,
		"count":300,
		"byteOffset":12,
		"min":[-0.9826078414916992,
		-0.9961534738540649,
		-0.9960598349571228],
		"max":[0.9996338486671448,
		0.9951242208480835,
		0.9832785129547119]
	},
	{
		"bufferView":89,
		"type":"VEC2",
		"componentType":5126,
		"count":300,
		"byteOffset":24,
		"min":[0.0,
		0.0],
		"max":[0.9857050776481628,
		1.0]
	},
	{
		"bufferView":90,
		"type":"SCALAR",
		"componentType":5126,
		"count":91,
		"byteOffset":0,
		"min":[0.0],
		"max":[3.0]
	},
	{
		"bufferView":90,
		"type":"VEC4",
		"componentType":5126,
		"count":91,
		"byteOffset":364,
		"min":[0.0,
		0.0,
		0.0,
		-1.0],
		"max":[0.5,
		0.5,
		0.5,
		-0.5]
	},
	{
		"bufferView":91,
		"type":"SCALAR",
		"componentType":5126,
		"count":91,
		"byteOffset":0,
		"min":[0.0],
		"max":[3.0]
	},
	{
		"bufferView":91,
		"type":"VEC3",
		"componentType":5126,
		"count":91,
		"byteOffset":364,
		"min":[0.0,
		0.0,
		0.0],
		"max":[1.0,
		1.0,
		1.0]
	},
	{
		"bufferView":92,
		"type":"SCALAR",
		"componentType":5123,
		"count":300,
		"byteOffset":0,
		"min":[0],
		"max":[299]
	},
	{
		"bufferView":93,
		"type":"VEC3",
		"componentType":5126,
		"count":300,
		"byteOffset":0,
		"min":[-0.2912644147872925,
		0.9155446290969849,
		-1.29242742061615],
		"max":[-0.10129105299711228,
		1.122942328453064,
		-1.1203382015228272]
	},
	{
		"bufferView":93,
		"type":"VEC3",
		"componentType":5126,
		"count":300,
		"byteOffset":12,
		"min":[-0.9985787272453308,
		-0.9988048672676086,
		-0.998755931854248],
		"max":[0.9986890554428101,
		0.9981120228767395,
		0.996900200843811]
	},
	{
		"bufferView":93,
		"type":"VEC2",
		"componentType":5126,
		"count":300,
		"byteOffset":24,
		"min":[0.0,
		0.0],
		"max":[0.9857050776481628,
		1.0]
	},
	{
		"bufferView":94,
		"type":"SCALAR",
		"componentType":5126,
		"count":91,
		"byteOffset":0,
		"min":[0.0],
		"max":[3.0]
	},
	{
		"bufferView":94,
		"type":"VEC4",
		"componentType":5126,
		"count":91,
		"byteOffset":364,
		"min":[0.0,
		0.0,
		0.0,
		-1.0],
		"max":[0.5,
		0.5,
		0.5,
		-0.5]
	},
	{
		"bufferView":95,
		"type":"SCALAR",
		"componentType":5126,
		"count":91,
		"byteOffset":0,
		"min":[0.0],
		"max":[3.0]
	},
	{
		"bufferView":95,
		"type":"VEC3",
		"componentType":5126,
		"count":91,
		"byteOffset":364,
		"min":[0.0,
		0.0,
		0.0],
		"max":[1.0,
		1.0,
		1.0]
	},
	{
		"bufferView":96,
		"type":"SCALAR",
		"componentType":5123,
		"count":300,
		"byteOffset":0,
		"min":[0],
		"max":[299]
	},
	{
		"bufferView":97,
		"type":"VEC3",
		"componentType":5126,
		"count":300,
		"byteOffset":0,
		"min":[-0.30220112204551699,
		0.9064666032791138,
		-1.4618321657180787],
		"max":[-0.11222776770591736,
		1.1138643026351929,
		-1.2897429466247559]
	},
	{
		"bufferView":97,
		"type":"VEC3",
		"componentType":5126,
		"count":300,
		"byteOffset":12,
		"min":[-0.9985787272453308,
		-0.9988048672676086,
		-0.998755931854248],
		"max":[0.9986890554428101,
		0.9981120228767395,
		0.996900200843811]
	},
	{
		"bufferView":97,
		"type":"VEC2",
		"componentType":5126,
		"count":300,
		"byteOffset":24,
		"min":[0.0,
		0.0],
		"max":[0.9857050776481628,
		1.0]
	},
	{
		"bufferView":98,
		"type":"SCALAR",
		"componentType":5126,
		"count":91,
		"byteOffset":0,
		"min":[0.0],
		"max":[3.0]
	},
	{
		"bufferView":98,
		"type":"VEC4",
		"componentType":5126,
		"count":91,
		"byteOffset":364,
		"min":[0.0,
		0.0,
		0.0,
		-1.0],
		"max":[0.5,
		0.5,
		0.5,
		-0.5]
	},
	{
		"bufferView":99,
		"type":"SCALAR",
		"componentType":5126,
		"count":91,
		"byteOffset":0,
		"min":[0.0],
		"max":[3.0]
	},
	{
		"bufferView":99,
		"type":"VEC3",
		"componentType":5126,
		"count":91,
		"byteOffset":364,
		"min":[0.0,
		0.0,
		0.0],
		"max":[1.0,
		1.0,
		1.0]
	},
	{
		"bufferView":100,
		"type":"SCALAR",
		"componentType":5123,
		"count":300,
		"byteOffset":0,
		"min":[0],
		"max":[299]
	},
	{
		"bufferView":101,
		"type":"VEC3",
		"componentType":5126,
		"count":300,
		"byteOffset":0,
		"min":[-0.2716325521469116,
		0.9031940698623657,
		-1.6393059492111207],
		"max":[-0.074594646692276,
		1.1063942909240723,
		-1.457478642463684]
	},
	{
		"bufferView":101,
		"type":"VEC3",
		"componentType":5126,
		"count":300,
		"byteOffset":12,
		"min":[-0.9996607899665833,
		-0.9997496008872986,
		-0.9998998045921326],
		"max":[0.9926073551177979,
		0.999393105506897,
		0.9916473627090454]
	},
	{
		"bufferView":101,
		"type":"VEC2",
		"componentType":5126,
		"count":300,
		"byteOffset":24,
		"min":[0.0,
		0.0],
		"max":[0.9857050776481628,
		1.0]
	},
	{
		"bufferView":102,
		"type":"SCALAR",
		"componentType":5126,
		"count":91,
		"byteOffset":0,
		"min":[0.0],
		"max":[3.0]
	},
	{
		"bufferView":102,
		"type":"VEC4",
		"componentType":5126,
		"count":91,
		"byteOffset":364,
		"min":[0.0,
		0.0,
		0.0,
		-1.0],
		"max":[0.5,
		0.5,
		0.5,
		-0.5]
	},
	{
		"bufferView":103,
		"type":"SCALAR",
		"componentType":5126,
		"count":91,
		"byteOffset":0,
		"min":[0.0],
		"max":[3.0]
	},
	{
		"bufferView":103,
		"type":"VEC3",
		"componentType":5126,
		"count":91,
		"byteOffset":364,
		"min":[0.0,
		0.0,
		0.0],
		"max":[1.0,
		1.0,
		1.0]
	},
	{
		"bufferView":104,
		"type":"SCALAR",
		"componentType":5123,
		"count":300,
		"byteOffset":0,
		"min":[0],
		"max":[299]
	},
	{
		"bufferView":105,
		"type":"VEC3",
		"componentType":5126,
		"count":300,
		"byteOffset":0,
		"min":[-0.2295348197221756,
		0.901229202747345,
		-1.8100802898406983],
		"max":[-0.018189536407589914,
		1.1019395589828492,
		-1.6130748987197877]
	},
	{
		"bufferView":105,
		"type":"VEC3",
		"componentType":5126,
		"count":300,
		"byteOffset":12,
		"min":[-0.9875457286834717,
		-0.9999452233314514,
		-0.9995484352111816],
		"max":[0.9879905581474304,
		0.9998497366905212,
		0.9590432047843933]
	},
	{
		"bufferView":105,
		"type":"VEC2",
		"componentType":5126,
		"count":300,
		"byteOffset":24,
		"min":[0.0,
		0.0],
		"max":[0.9857050776481628,
		1.0]
	},
	{
		"bufferView":106,
		"type":"SCALAR",
		"componentType":5126,
		"count":91,
		"byteOffset":0,
		"min":[0.0],
		"max":[3.0]
	},
	{
		"bufferView":106,
		"type":"VEC4",
		"componentType":5126,
		"count":91,
		"byteOffset":364,
		"min":[0.0,
		0.0,
		0.0,
		-1.0],
		"max":[0.5,
		0.5,
		0.5,
		-0.5]
	},
	{
		"bufferView":107,
		"type":"SCALAR",
		"componentType":5126,
		"count":91,
		"byteOffset":0,
		"min":[0.0],
		"max":[3.0]
	},
	{
		"bufferView":107,
		"type":"VEC3",
		"componentType":5126,
		"count":91,
		"byteOffset":364,
		"min":[0.0,
		0.0,
		0.0],
		"max":[1.0,
		1.0,
		1.0]
	},
	{
		"bufferView":108,
		"type":"SCALAR",
		"componentType":5123,
		"count":300,
		"byteOffset":0,
		"min":[0],
		"max":[299]
	},
	{
		"bufferView":109,
		"type":"VEC3",
		"componentType":5126,
		"count":300,
		"byteOffset":0,
		"min":[-0.16778577864170075,
		0.8993538022041321,
		-1.9715886116027833],
		"max":[0.05006096139550209,
		1.099747896194458,
		-1.766236424446106]
	},
	{
		"bufferView":109,
		"type":"VEC3",
		"componentType":5126,
		"count":300,
		"byteOffset":12,
		"min":[-0.9666346311569214,
		-0.999876081943512,
		-0.9959911704063416],
		"max":[0.9989989399909973,
		0.9999732971191406,
		0.9630953669548035]
	},
	{
		"bufferView":109,
		"type":"VEC2",
		"componentType":5126,
		"count":300,
		"byteOffset":24,
		"min":[0.0,
		0.0],
		"max":[0.9857050776481628,
		1.0]
	},
	{
		"bufferView":110,
		"type":"SCALAR",
		"componentType":5126,
		"count":91,
		"byteOffset":0,
		"min":[0.0],
		"max":[3.0]
	},
	{
		"bufferView":110,
		"type":"VEC4",
		"componentType":5126,
		"count":91,
		"byteOffset":364,
		"min":[0.0,
		0.0,
		0.0,
		-1.0],
		"max":[0.5,
		0.5,
		0.5,
		-0.5]
	},
	{
		"bufferView":111,
		"type":"SCALAR",
		"componentType":5126,
		"count":91,
		"byteOffset":0,
		"min":[0.0],
		"max":[3.0]
	},
	{
		"bufferView":111,
		"type":"VEC3",
		"componentType":5126,
		"count":91,
		"byteOffset":364,
		"min":[0.0,
		0.0,
		0.0],
		"max":[1.0,
		1.0,
		1.0]
	},
	{
		"bufferView":112,
		"type":"SCALAR",
		"componentType":5123,
		"count":300,
		"byteOffset":0,
		"min":[0],
		"max":[299]
	},
	{
		"bufferView":113,
		"type":"VEC3",
		"componentType":5126,
		"count":300,
		"byteOffset":0,
		"min":[-0.09234555810689926,
		0.8989251852035523,
		-2.126687526702881],
		"max":[0.12913791835308076,
		1.0992649793624879,
		-1.9147632122039796]
	},
	{
		"bufferView":113,
		"type":"VEC3",
		"componentType":5126,
		"count":300,
		"byteOffset":12,
		"min":[-0.9840970039367676,
		-0.9997170567512512,
		-0.9948649406433106],
		"max":[0.9998510479927063,
		0.9999988079071045,
		0.968455970287323]
	},
	{
		"bufferView":113,
		"type":"VEC2",
		"componentType":5126,
		"count":300,
		"byteOffset":24,
		"min":[0.0,
		0.0],
		"max":[0.9857050776481628,
		1.0]
	},
	{
		"bufferView":114,
		"type":"SCALAR",
		"componentType":5126,
		"count":91,
		"byteOffset":0,
		"min":[0.0],
		"max":[3.0]
	},
	{
		"bufferView":114,
		"type":"VEC4",
		"componentType":5126,
		"count":91,
		"byteOffset":364,
		"min":[0.0,
		0.0,
		0.0,
		-1.0],
		"max":[0.5,
		0.5,
		0.5,
		-0.5]
	},
	{
		"bufferView":115,
		"type":"SCALAR",
		"componentType":5126,
		"count":91,
		"byteOffset":0,
		"min":[0.0],
		"max":[3.0]
	},
	{
		"bufferView":115,
		"type":"VEC3",
		"componentType":5126,
		"count":91,
		"byteOffset":364,
		"min":[0.0,
		0.0,
		0.0],
		"max":[1.0,
		1.0,
		1.0]
	},
	{
		"bufferView":116,
		"type":"SCALAR",
		"componentType":5123,
		"count":300,
		"byteOffset":0,
		"min":[0],
		"max":[299]
	},
	{
		"bufferView":117,
		"type":"VEC3",
		"componentType":5126,
		"count":300,
		"byteOffset":0,
		"min":[-0.006163723301142454,
		0.900156557559967,
		-2.2732179164886476],
		"max":[0.21531975269317628,
		1.1004964113235474,
		-2.061293601989746]
	},
	{
		"bufferView":117,
		"type":"VEC3",
		"componentType":5126,
		"count":300,
		"byteOffset":12,
		"min":[-0.9840970039367676,
		-0.9997170567512512,
		-0.9948649406433106],
		"max":[0.9998510479927063,
		0.9999988079071045,
		0.968455970287323]
	},
	{
		"bufferView":117,
		"type":"VEC2",
		"componentType":5126,
		"count":300,
		"byteOffset":24,
		"min":[0.0,
		0.0],
		"max":[0.9857050776481628,
		1.0]
	},
	{
		"bufferView":118,
		"type":"SCALAR",
		"componentType":5126,
		"count":91,
		"byteOffset":0,
		"min":[0.0],
		"max":[3.0]
	},
	{
		"bufferView":118,
		"type":"VEC4",
		"componentType":5126,
		"count":91,
		"byteOffset":364,
		"min":[0.0,
		0.0,
		0.0,
		-1.0],
		"max":[0.5,
		0.5,
		0.5,
		-0.5]
	},
	{
		"bufferView":119,
		"type":"SCALAR",
		"componentType":5126,
		"count":91,
		"byteOffset":0,
		"min":[0.0],
		"max":[3.0]
	},
	{
		"bufferView":119,
		"type":"VEC3",
		"componentType":5126,
		"count":91,
		"byteOffset":364,
		"min":[0.0,
		0.0,
		0.0],
		"max":[1.0,
		1.0,
		1.0]
	},
	{
		"bufferView":120,
		"type":"SCALAR",
		"componentType":5123,
		"count":300,
		"byteOffset":0,
		"min":[0],
		"max":[299]
	},
	{
		"bufferView":121,
		"type":"VEC3",
		"componentType":5126,
		"count":300,
		"byteOffset":0,
		"min":[0.08810889720916748,
		0.9021978974342346,
		-2.4164559841156008],
		"max":[0.3115684986114502,
		1.1029587984085084,
		-2.200457811355591]
	},
	{
		"bufferView":121,
		"type":"VEC3",
		"componentType":5126,
		"count":300,
		"byteOffset":12,
		"min":[-0.9931353330612183,
		-0.9995309710502625,
		-0.9988014101982117],
		"max":[0.9970476627349854,
		0.9999955892562866,
		0.976193368434906]
	},
	{
		"bufferView":121,
		"type":"VEC2",
		"componentType":5126,
		"count":300,
		"byteOffset":24,
		"min":[0.0,
		0.0],
		"max":[0.9857050776481628,
		1.0]
	},
	{
		"bufferView":122,
		"type":"SCALAR",
		"componentType":5126,
		"count":91,
		"byteOffset":0,
		"min":[0.0],
		"max":[3.0]
	},
	{
		"bufferView":122,
		"type":"VEC4",
		"componentType":5126,
		"count":91,
		"byteOffset":364,
		"min":[0.0,
		0.0,
		0.0,
		-1.0],
		"max":[0.5,
		0.5,
		0.5,
		-0.5]
	},
	{
		"bufferView":123,
		"type":"SCALAR",
		"componentType":5126,
		"count":91,
		"byteOffset":0,
		"min":[0.0],
		"max":[3.0]
	},
	{
		"bufferView":123,
		"type":"VEC3",
		"componentType":5126,
		"count":91,
		"byteOffset":364,
		"min":[0.0,
		0.0,
		0.0],
		"max":[1.0,
		1.0,
		1.0]
	},
	{
		"bufferView":124,
		"type":"SCALAR",
		"componentType":5123,
		"count":300,
		"byteOffset":0,
		"min":[0],
		"max":[299]
	},
	{
		"bufferView":125,
		"type":"VEC3",
		"componentType":5126,
		"count":300,
		"byteOffset":0,
		"min":[0.1878965049982071,
		0.9050336480140686,
		-2.5552804470062258],
		"max":[0.4123205840587616,
		1.1063175201416016,
		-2.3366525173187258]
	},
	{
		"bufferView":125,
		"type":"VEC3",
		"componentType":5126,
		"count":300,
		"byteOffset":12,
		"min":[-0.9976220726966858,
		-0.9993429183959961,
		-0.9992336630821228],
		"max":[0.9921853542327881,
		0.9999810457229614,
		0.9835852980613709]
	},
	{
		"bufferView":125,
		"type":"VEC2",
		"componentType":5126,
		"count":300,
		"byteOffset":24,
		"min":[0.0,
		0.0],
		"max":[0.9857050776481628,
		1.0]
	},
	{
		"bufferView":126,
		"type":"SCALAR",
		"componentType":5126,
		"count":91,
		"byteOffset":0,
		"min":[0.0],
		"max":[3.0]
	},
	{
		"bufferView":126,
		"type":"VEC4",
		"componentType":5126,
		"count":91,
		"byteOffset":364,
		"min":[0.0,
		0.0,
		0.0,
		-1.0],
		"max":[0.5,
		0.5,
		0.5,
		-0.5]
	},
	{
		"bufferView":127,
		"type":"SCALAR",
		"componentType":5126,
		"count":91,
		"byteOffset":0,
		"min":[0.0],
		"max":[3.0]
	},
	{
		"bufferView":127,
		"type":"VEC3",
		"componentType":5126,
		"count":91,
		"byteOffset":364,
		"min":[0.0,
		0.0,
		0.0],
		"max":[1.0,
		1.0,
		1.0]
	},
	{
		"bufferView":128,
		"type":"SCALAR",
		"componentType":5123,
		"count":300,
		"byteOffset":0,
		"min":[0],
		"max":[299]
	},
	{
		"bufferView":129,
		"type":"VEC3",
		"componentType":5126,
		"count":300,
		"byteOffset":0,
		"min":[0.2920715808868408,
		0.9085684418678284,
		-2.690300226211548],
		"max":[0.5171341896057129,
		1.1102726459503174,
		-2.4699172973632814]
	},
	{
		"bufferView":129,
		"type":"VEC3",
		"componentType":5126,
		"count":300,
		"byteOffset":12,
		"min":[-0.9995439052581787,
		-0.9991611242294312,
		-0.9978451728820801],
		"max":[0.9865509867668152,
		0.999945342540741,
		0.9878796935081482]
	},
	{
		"bufferView":129,
		"type":"VEC2",
		"componentType":5126,
		"count":300,
		"byteOffset":24,
		"min":[0.0,
		0.0],
		"max":[0.9857050776481628,
		1.0]
	},
	{
		"bufferView":130,
		"type":"SCALAR",
		"componentType":5126,
		"count":91,
		"byteOffset":0,
		"min":[0.0],
		"max":[3.0]
	},
	{
		"bufferView":130,
		"type":"VEC4",
		"componentType":5126,
		"count":91,
		"byteOffset":364,
		"min":[0.0,
		0.0,
		0.0,
		-1.0],
		"max":[0.5,
		0.5,
		0.5,
		-0.5]
	},
	{
		"bufferView":131,
		"type":"SCALAR",
		"componentType":5126,
		"count":91,
		"byteOffset":0,
		"min":[0.0],
		"max":[3.0]
	},
	{
		"bufferView":131,
		"type":"VEC3",
		"componentType":5126,
		"count":91,
		"byteOffset":364,
		"min":[0.0,
		0.0,
		0.0],
		"max":[1.0,
		1.0,
		1.0]
	},
	{
		"bufferView":132,
		"type":"SCALAR",
		"componentType":5123,
		"count":300,
		"byteOffset":0,
		"min":[0],
		"max":[299]
	},
	{
		"bufferView":133,
		"type":"VEC3",
		"componentType":5126,
		"count":300,
		"byteOffset":0,
		"min":[0.3997748792171478,
		0.9127077460289002,
		-2.8220255374908449],
		"max":[0.6254751682281494,
		1.1147598028182984,
		-2.6004419326782228]
	},
	{
		"bufferView":133,
		"type":"VEC3",
		"componentType":5126,
		"count":300,
		"byteOffset":12,
		"min":[-0.9999603629112244,
		-0.998989462852478,
		-0.9954861998558044],
		"max":[0.9913071393966675,
		0.9998977780342102,
		0.9902844429016113]
	},
	{
		"bufferView":133,
		"type":"VEC2",
		"componentType":5126,
		"count":300,
		"byteOffset":24,
		"min":[0.0,
		0.0],
		"max":[0.9857050776481628,
		1.0]
	},
	{
		"bufferView":134,
		"type":"SCALAR",
		"componentType":5126,
		"count":91,
		"byteOffset":0,
		"min":[0.0],
		"max":[3.0]
	},
	{
		"bufferView":134,
		"type":"VEC4",
		"componentType":5126,
		"count":91,
		"byteOffset":364,
		"min":[0.0,
		0.0,
		0.0,
		-1.0],
		"max":[0.5,
		0.5,
		0.5,
		-0.5]
	},
	{
		"bufferView":135,
		"type":"SCALAR",
		"componentType":5126,
		"count":91,
		"byteOffset":0,
		"min":[0.0],
		"max":[3.0]
	},
	{
		"bufferView":135,
		"type":"VEC3",
		"componentType":5126,
		"count":91,
		"byteOffset":364,
		"min":[0.0,
		0.0,
		0.0],
		"max":[1.0,
		1.0,
		1.0]
	},
	{
		"bufferView":136,
		"type":"SCALAR",
		"componentType":5123,
		"count":300,
		"byteOffset":0,
		"min":[0],
		"max":[299]
	},
	{
		"bufferView":137,
		"type":"VEC3",
		"componentType":5126,
		"count":300,
		"byteOffset":0,
		"min":[0.5110023617744446,
		0.917569637298584,
		-2.9504964351654054],
		"max":[0.7367026805877686,
		1.1196216344833375,
		-2.728912830352783]
	},
	{
		"bufferView":137,
		"type":"VEC3",
		"componentType":5126,
		"count":300,
		"byteOffset":12,
		"min":[-0.9999603629112244,
		-0.998989462852478,
		-0.9954861998558044],
		"max":[0.9913071393966675,
		0.9998977780342102,
		0.9902844429016113]
	},
	{
		"bufferView":137,
		"type":"VEC2",
		"componentType":5126,
		"count":300,
		"byteOffset":24,
		"min":[0.0,
		0.0],
		"max":[0.9857050776481628,
		1.0]
	},
	{
		"bufferView":138,
		"type":"SCALAR",
		"componentType":5126,
		"count":91,
		"byteOffset":0,
		"min":[0.0],
		"max":[3.0]
	},
	{
		"bufferView":138,
		"type":"VEC4",
		"componentType":5126,
		"count":91,
		"byteOffset":364,
		"min":[0.0,
		0.0,
		0.0,
		-1.0],
		"max":[0.5,
		0.5,
		0.5,
		-0.5]
	},
	{
		"bufferView":139,
		"type":"SCALAR",
		"componentType":5126,
		"count":91,
		"byteOffset":0,
		"min":[0.0],
		"max":[3.0]
	},
	{
		"bufferView":139,
		"type":"VEC3",
		"componentType":5126,
		"count":91,
		"byteOffset":364,
		"min":[0.0,
		0.0,
		0.0],
		"max":[1.0,
		1.0,
		1.0]
	}],
	"bufferViews":[{
		"buffer":0,
		"byteOffset":0,
		"byteLength":1440,
		"target":34963
	},
	{
		"buffer":0,
		"byteOffset":1440,
		"byteLength":23040,
		"target":34962,
		"byteStride":32
	},
	{
		"buffer":1,
		"byteOffset":0,
		"byteLength":600,
		"target":34963
	},
	{
		"buffer":1,
		"byteOffset":600,
		"byteLength":9600,
		"target":34962,
		"byteStride":32
	},
	{
		"buffer":2,
		"byteOffset":0,
		"byteLength":600,
		"target":34963
	},
	{
		"buffer":2,
		"byteOffset":600,
		"byteLength":9600,
		"target":34962,
		"byteStride":32
	},
	{
		"buffer":3,
		"byteOffset":0,
		"byteLength":600,
		"target":34963
	},
	{
		"buffer":3,
		"byteOffset":600,
		"byteLength":9600,
		"target":34962,
		"byteStride":32
	},
	{
		"buffer":4,
		"byteOffset":0,
		"byteLength":600,
		"target":34963
	},
	{
		"buffer":4,
		"byteOffset":600,
		"byteLength":9600,
		"target":34962,
		"byteStride":32
	},
	{
		"buffer":5,
		"byteOffset":0,
		"byteLength":600,
		"target":34963
	},
	{
		"buffer":5,
		"byteOffset":600,
		"byteLength":9600,
		"target":34962,
		"byteStride":32
	},
	{
		"buffer":6,
		"byteOffset":0,
		"byteLength":600,
		"target":34963
	},
	{
		"buffer":6,
		"byteOffset":600,
		"byteLength":9600,
		"target":34962,
		"byteStride":32
	},
	{
		"buffer":7,
		"byteOffset":0,
		"byteLength":600,
		"target":34963
	},
	{
		"buffer":7,
		"byteOffset":600,
		"byteLength":9600,
		"target":34962,
		"byteStride":32
	},
	{
		"buffer":8,
		"byteOffset":0,
		"byteLength":600,
		"target":34963
	},
	{
		"buffer":8,
		"byteOffset":600,
		"byteLength":9600,
		"target":34962,
		"byteStride":32
	},
	{
		"buffer":9,
		"byteOffset":0,
		"byteLength":600,
		"target":34963
	},
	{
		"buffer":9,
		"byteOffset":600,
		"byteLength":9600,
		"target":34962,
		"byteStride":32
	},
	{
		"buffer":10,
		"byteOffset":0,
		"byteLength":600,
		"target":34963
	},
	{
		"buffer":10,
		"byteOffset":600,
		"byteLength":9600,
		"target":34962,
		"byteStride":32
	},
	{
		"buffer":11,
		"byteOffset":0,
		"byteLength":600,
		"target":34963
	},
	{
		"buffer":11,
		"byteOffset":600,
		"byteLength":9600,
		"target":34962,
		"byteStride":32
	},
	{
		"buffer":12,
		"byteOffset":0,
		"byteLength":600,
		"target":34963
	},
	{
		"buffer":12,
		"byteOffset":600,
		"byteLength":9600,
		"target":34962,
		"byteStride":32
	},
	{
		"buffer":13,
		"byteOffset":0,
		"byteLength":600,
		"target":34963
	},
	{
		"buffer":13,
		"byteOffset":600,
		"byteLength":9600,
		"target":34962,
		"byteStride":32
	},
	{
		"buffer":14,
		"byteOffset":0,
		"byteLength":600,
		"target":34963
	},
	{
		"buffer":14,
		"byteOffset":600,
		"byteLength":9600,
		"target":34962,
		"byteStride":32
	},
	{
		"buffer":15,
		"byteOffset":0,
		"byteLength":600,
		"target":34963
	},
	{
		"buffer":15,
		"byteOffset":600,
		"byteLength":9600,
		"target":34962,
		"byteStride":32
	},
	{
		"buffer":16,
		"byteOffset":0,
		"byteLength":600,
		"target":34963
	},
	{
		"buffer":16,
		"byteOffset":600,
		"byteLength":9600,
		"target":34962,
		"byteStride":32
	},
	{
		"buffer":17,
		"byteOffset":0,
		"byteLength":600,
		"target":34963
	},
	{
		"buffer":17,
		"byteOffset":600,
		"byteLength":9600,
		"target":34962,
		"byteStride":32
	},
	{
		"buffer":18,
		"byteOffset":0,
		"byteLength":600,
		"target":34963
	},
	{
		"buffer":18,
		"byteOffset":600,
		"byteLength":9600,
		"target":34962,
		"byteStride":32
	},
	{
		"buffer":19,
		"byteOffset":0,
		"byteLength":1820
	},
	{
		"buffer":19,
		"byteOffset":1820,
		"byteLength":1456
	},
	{
		"buffer":20,
		"byteOffset":0,
		"byteLength":600,
		"target":34963
	},
	{
		"buffer":20,
		"byteOffset":600,
		"byteLength":9600,
		"target":34962,
		"byteStride":32
	},
	{
		"buffer":21,
		"byteOffset":0,
		"byteLength":1820
	},
	{
		"buffer":21,
		"byteOffset":1820,
		"byteLength":1456
	},
	{
		"buffer":22,
		"byteOffset":0,
		"byteLength":600,
		"target":34963
	},
	{
		"buffer":22,
		"byteOffset":600,
		"byteLength":9600,
		"target":34962,
		"byteStride":32
	},
	{
		"buffer":23,
		"byteOffset":0,
		"byteLength":1820
	},
	{
		"buffer":23,
		"byteOffset":1820,
		"byteLength":1456
	},
	{
		"buffer":24,
		"byteOffset":0,
		"byteLength":600,
		"target":34963
	},
	{
		"buffer":24,
		"byteOffset":600,
		"byteLength":9600,
		"target":34962,
		"byteStride":32
	},
	{
		"buffer":25,
		"byteOffset":0,
		"byteLength":1820
	},
	{
		"buffer":25,
		"byteOffset":1820,
		"byteLength":1456
	},
	{
		"buffer":26,
		"byteOffset":0,
		"byteLength":600,
		"target":34963
	},
	{
		"buffer":26,
		"byteOffset":600,
		"byteLength":9600,
		"target":34962,
		"byteStride":32
	},
	{
		"buffer":27,
		"byteOffset":0,
		"byteLength":1820
	},
	{
		"buffer":27,
		"byteOffset":1820,
		"byteLength":1456
	},
	{
		"buffer":28,
		"byteOffset":0,
		"byteLength":600,
		"target":34963
	},
	{
		"buffer":28,
		"byteOffset":600,
		"byteLength":9600,
		"target":34962,
		"byteStride":32
	},
	{
		"buffer":29,
		"byteOffset":0,
		"byteLength":1820
	},
	{
		"buffer":29,
		"byteOffset":1820,
		"byteLength":1456
	},
	{
		"buffer":30,
		"byteOffset":0,
		"byteLength":600,
		"target":34963
	},
	{
		"buffer":30,
		"byteOffset":600,
		"byteLength":9600,
		"target":34962,
		"byteStride":32
	},
	{
		"buffer":31,
		"byteOffset":0,
		"byteLength":1820
	},
	{
		"buffer":31,
		"byteOffset":1820,
		"byteLength":1456
	},
	{
		"buffer":32,
		"byteOffset":0,
		"byteLength":600,
		"target":34963
	},
	{
		"buffer":32,
		"byteOffset":600,
		"byteLength":9600,
		"target":34962,
		"byteStride":32
	},
	{
		"buffer":33,
		"byteOffset":0,
		"byteLength":1820
	},
	{
		"buffer":33,
		"byteOffset":1820,
		"byteLength":1456
	},
	{
		"buffer":34,
		"byteOffset":0,
		"byteLength":600,
		"target":34963
	},
	{
		"buffer":34,
		"byteOffset":600,
		"byteLength":9600,
		"target":34962,
		"byteStride":32
	},
	{
		"buffer":35,
		"byteOffset":0,
		"byteLength":1820
	},
	{
		"buffer":35,
		"byteOffset":1820,
		"byteLength":1456
	},
	{
		"buffer":36,
		"byteOffset":0,
		"byteLength":600,
		"target":34963
	},
	{
		"buffer":36,
		"byteOffset":600,
		"byteLength":9600,
		"target":34962,
		"byteStride":32
	},
	{
		"buffer":37,
		"byteOffset":0,
		"byteLength":1820
	},
	{
		"buffer":37,
		"byteOffset":1820,
		"byteLength":1456
	},
	{
		"buffer":38,
		"byteOffset":0,
		"byteLength":600,
		"target":34963
	},
	{
		"buffer":38,
		"byteOffset":600,
		"byteLength":9600,
		"target":34962,
		"byteStride":32
	},
	{
		"buffer":39,
		"byteOffset":0,
		"byteLength":1820
	},
	{
		"buffer":39,
		"byteOffset":1820,
		"byteLength":1456
	},
	{
		"buffer":40,
		"byteOffset":0,
		"byteLength":600,
		"target":34963
	},
	{
		"buffer":40,
		"byteOffset":600,
		"byteLength":9600,
		"target":34962,
		"byteStride":32
	},
	{
		"buffer":41,
		"byteOffset":0,
		"byteLength":1820
	},
	{
		"buffer":41,
		"byteOffset":1820,
		"byteLength":1456
	},
	{
		"buffer":42,
		"byteOffset":0,
		"byteLength":600,
		"target":34963
	},
	{
		"buffer":42,
		"byteOffset":600,
		"byteLength":9600,
		"target":34962,
		"byteStride":32
	},
	{
		"buffer":43,
		"byteOffset":0,
		"byteLength":1820
	},
	{
		"buffer":43,
		"byteOffset":1820,
		"byteLength":1456
	},
	{
		"buffer":44,
		"byteOffset":0,
		"byteLength":600,
		"target":34963
	},
	{
		"buffer":44,
		"byteOffset":600,
		"byteLength":9600,
		"target":34962,
		"byteStride":32
	},
	{
		"buffer":45,
		"byteOffset":0,
		"byteLength":1820
	},
	{
		"buffer":45,
		"byteOffset":1820,
		"byteLength":1456
	},
	{
		"buffer":46,
		"byteOffset":0,
		"byteLength":600,
		"target":34963
	},
	{
		"buffer":46,
		"byteOffset":600,
		"byteLength":9600,
		"target":34962,
		"byteStride":32
	},
	{
		"buffer":47,
		"byteOffset":0,
		"byteLength":1820
	},
	{
		"buffer":47,
		"byteOffset":1820,
		"byteLength":1456
	},
	{
		"buffer":48,
		"byteOffset":0,
		"byteLength":600,
		"target":34963
	},
	{
		"buffer":48,
		"byteOffset":600,
		"byteLength":9600,
		"target":34962,
		"byteStride":32
	},
	{
		"buffer":49,
		"byteOffset":0,
		"byteLength":1820
	},
	{
		"buffer":49,
		"byteOffset":1820,
		"byteLength":1456
	},
	{
		"buffer":50,
		"byteOffset":0,
		"byteLength":600,
		"target":34963
	},
	{
		"buffer":50,
		"byteOffset":600,
		"byteLength":9600,
		"target":34962,
		"byteStride":32
	},
	{
		"buffer":51,
		"byteOffset":0,
		"byteLength":1820
	},
	{
		"buffer":51,
		"byteOffset":1820,
		"byteLength":1456
	},
	{
		"buffer":52,
		"byteOffset":0,
		"byteLength":600,
		"target":34963
	},
	{
		"buffer":52,
		"byteOffset":600,
		"byteLength":9600,
		"target":34962,
		"byteStride":32
	},
	{
		"buffer":53,
		"byteOffset":0,
		"byteLength":1820
	},
	{
		"buffer":53,
		"byteOffset":1820,
		"byteLength":1456
	},
	{
		"buffer":54,
		"byteOffset":0,
		"byteLength":600,
		"target":34963
	},
	{
		"buffer":54,
		"byteOffset":600,
		"byteLength":9600,
		"target":34962,
		"byteStride":32
	},
	{
		"buffer":55,
		"byteOffset":0,
		"byteLength":1820
	},
	{
		"buffer":55,
		"byteOffset":1820,
		"byteLength":1456
	},
	{
		"buffer":56,
		"byteOffset":0,
		"byteLength":600,
		"target":34963
	},
	{
		"buffer":56,
		"byteOffset":600,
		"byteLength":9600,
		"target":34962,
		"byteStride":32
	},
	{
		"buffer":57,
		"byteOffset":0,
		"byteLength":1820
	},
	{
		"buffer":57,
		"byteOffset":1820,
		"byteLength":1456
	},
	{
		"buffer":58,
		"byteOffset":0,
		"byteLength":600,
		"target":34963
	},
	{
		"buffer":58,
		"byteOffset":600,
		"byteLength":9600,
		"target":34962,
		"byteStride":32
	},
	{
		"buffer":59,
		"byteOffset":0,
		"byteLength":1820
	},
	{
		"buffer":59,
		"byteOffset":1820,
		"byteLength":1456
	},
	{
		"buffer":60,
		"byteOffset":0,
		"byteLength":600,
		"target":34963
	},
	{
		"buffer":60,
		"byteOffset":600,
		"byteLength":9600,
		"target":34962,
		"byteStride":32
	},
	{
		"buffer":61,
		"byteOffset":0,
		"byteLength":1820
	},
	{
		"buffer":61,
		"byteOffset":1820,
		"byteLength":1456
	},
	{
		"buffer":62,
		"byteOffset":0,
		"byteLength":600,
		"target":34963
	},
	{
		"buffer":62,
		"byteOffset":600,
		"byteLength":9600,
		"target":34962,
		"byteStride":32
	},
	{
		"buffer":63,
		"byteOffset":0,
		"byteLength":1820
	},
	{
		"buffer":63,
		"byteOffset":1820,
		"byteLength":1456
	},
	{
		"buffer":64,
		"byteOffset":0,
		"byteLength":600,
		"target":34963
	},
	{
		"buffer":64,
		"byteOffset":600,
		"byteLength":9600,
		"target":34962,
		"byteStride":32
	},
	{
		"buffer":65,
		"byteOffset":0,
		"byteLength":1820
	},
	{
		"buffer":65,
		"byteOffset":1820,
		"byteLength":1456
	},
	{
		"buffer":66,
		"byteOffset":0,
		"byteLength":600,
		"target":34963
	},
	{
		"buffer":66,
		"byteOffset":600,
		"byteLength":9600,
		"target":34962,
		"byteStride":32
	},
	{
		"buffer":67,
		"byteOffset":0,
		"byteLength":1820
	},
	{
		"buffer":67,
		"byteOffset":1820,
		"byteLength":1456
	},
	{
		"buffer":68,
		"byteOffset":0,
		"byteLength":600,
		"target":34963
	},
	{
		"buffer":68,
		"byteOffset":600,
		"byteLength":9600,
		"target":34962,
		"byteStride":32
	},
	{
		"buffer":69,
		"byteOffset":0,
		"byteLength":1820
	},
	{
		"buffer":69,
		"byteOffset":1820,
		"byteLength":1456
	}],
	"buffers":[{
		"uri":"data:application/octet-stream;base64,",
		"byteLength":24480
	},
	{
		"uri":"data:application/octet-stream;base64,",
		"byteLength":10200
	},
	{
		"uri":"data:application/octet-stream;base64,",
		"byteLength":10200
	},
	{
		"uri":"data:application/octet-stream;base64,",
		"byteLength":10200
	},
	{
		"uri":"data:application/octet-stream;base64,",
		"byteLength":10200
	},
	{
		"uri":"data:application/octet-stream;base64,",
		"byteLength":10200
	},
	{
		"uri":"data:application/octet-stream;base64,",
		"byteLength":10200
	},
	{
		"uri":"data:application/octet-stream;base64,",
		"byteLength":10200
	},
	{
		"uri":"data:application/octet-stream;base64,",
		"byteLength":10200
	},
	{
		"uri":"data:application/octet-stream;base64,",
		"byteLength":10200
	},
	{
		"uri":"data:application/octet-stream;base64,",
		"byteLength":10200
	},
	{
		"uri":"data:application/octet-stream;base64,",
		"byteLength":10200
	},
	{
		"uri":"data:application/octet-stream;base64,",
		"byteLength":10200
	},
	{
		"uri":"data:application/octet-stream;base64,",
		"byteLength":10200
	},
	{
		"uri":"data:application/octet-stream;base64,",
		"byteLength":10200
	},
	{
		"uri":"data:application/octet-stream;base64,",
		"byteLength":10200
	},
	{
		"uri":"data:application/octet-stream;base64,",
		"byteLength":10200
	},
	{
		"uri":"data:application/octet-stream;base64,",
		"byteLength":10200
	},
	{
		"uri":"data:application/octet-stream;base64,",
		"byteLength":10200
	},
	{
		"uri":"data:application/octet-stream;base64,",
		"byteLength":3276
	},
	{
		"uri":"data:application/octet-stream;base64,",
		"byteLength":10200
	},
	{
		"uri":"data:application/octet-stream;base64,",
		"byteLength":3276
	},
	{
		"uri":"data:application/octet-stream;base64,",
		"byteLength":10200
	},
	{
		"uri":"data:application/octet-stream;base64,",
		"byteLength":3276
	},
	{
		"uri":"data:application/octet-stream;base64,",
		"byteLength":10200
	},
	{
		"uri":"data:application/octet-stream;base64,",
		"byteLength":3276
	},
	{
		"uri":"data:application/octet-stream;base64,",
		"byteLength":10200
	},
	{
		"uri":"data:application/octet-stream;base64,",
		"byteLength":3276
	},
	{
		"uri":"data:application/octet-stream;base64,",
		"byteLength":10200
	},
	{
		"uri":"data:application/octet-stream;base64,",
		"byteLength":3276
	},
	{
		"uri":"data:application/octet-stream;base64,",
		"byteLength":10200
	},
	{
		"uri":"data:application/octet-stream;base64,",
		"byteLength":3276
	},
	{
		"uri":"data:application/octet-stream;base64,",
		"byteLength":10200
	},
	{
		"uri":"data:application/octet-stream;base64,",
		"byteLength":3276
	},
	{
		"uri":"data:application/octet-stream;base64,",
		"byteLength":10200
	},
	{
		"uri":"data:application/octet-stream;base64,",
		"byteLength":3276
	},
	{
		"uri":"data:application/octet-stream;base64,",
		"byteLength":10200
	},
	{
		"uri":"data:application/octet-stream;base64,",
		"byteLength":3276
	},
	{
		"uri":"data:application/octet-stream;base64,",
		"byteLength":10200
	},
	{
		"uri":"data:application/octet-stream;base64,",
		"byteLength":3276
	},
	{
		"uri":"data:application/octet-stream;base64,",
		"byteLength":10200
	},
	{
		"uri":"data:application/octet-stream;base64,",
		"byteLength":3276
	},
	{
		"uri":"data:application/octet-stream;base64,",
		"byteLength":10200
	},
	{
		"uri":"data:application/octet-stream;base64,",
		"byteLength":3276
	},
	{
		"uri":"data:application/octet-stream;base64,",
		"byteLength":10200
	},
	{
		"uri":"data:application/octet-stream;base64,",
		"byteLength":3276
	},
	{
		"uri":"data:application/octet-stream;base64,",
		"byteLength":10200
	},
	{
		"uri":"data:application/octet-stream;base64,",
		"byteLength":3276
	},
	{
		"uri":"data:application/octet-stream;base64,",
		"byteLength":10200
	},
	{
		"uri":"data:application/octet-stream;base64,",
		"byteLength":3276
	},
	{
		"uri":"data:application/octet-stream;base64,",
		"byteLength":10200
	},
	{
		"uri":"data:application/octet-stream;base64,",
		"byteLength":3276
	},
	{
		"uri":"data:application/octet-stream;base64,",
		"byteLength":10200
	},
	{
		"uri":"data:application/octet-stream;base64,",
		"byteLength":3276
	},
	{
		"uri":"data:application/octet-stream;base64,",
		"byteLength":10200
	},
	{
		"uri":"data:application/octet-stream;base64,",
		"byteLength":3276
	},
	{
		"uri":"data:application/octet-stream;base64,",
		"byteLength":10200
	},
	{
		"uri":"data:application/octet-stream;base64,",
		"byteLength":3276
	},
	{
		"uri":"data:application/octet-stream;base64,",
		"byteLength":10200
	},
	{
		"uri":"data:application/octet-stream;base64,",
		"byteLength":3276
	},
	{
		"uri":"data:application/octet-stream;base64,",
		"byteLength":10200
	},
	{
		"uri":"data:application/octet-stream;base64,",
		"byteLength":3276
	},
	{
		"uri":"data:application/octet-stream;base64,",
		"byteLength":10200
	},
	{
		"uri":"data:application/octet-stream;base64,",
		"byteLength":3276
	},
	{
		"uri":"data:application/octet-stream;base64,",
		"byteLength":10200
	},
	{
		"uri":"data:application/octet-stream;base64,",
		"byteLength":3276
	},
	{
		"uri":"data:application/octet-stream;base64,",
		"byteLength":10200
	},
	{
		"uri":"data:application/octet-stream;base64,",
		"byteLength":3276
	},
	{
		"uri":"data:application/octet-stream;base64,",
		"byteLength":10200
	},
	{
		"uri":"data:application/octet-stream;base64,",
		"byteLength":3276
	}],
	"materials":[{
		"pbrMetallicRoughness":{
			"baseColorFactor":[1.0,
			0.6514056324958801,
			7.450580596923828e-9,
			1.0],
			"metallicFactor":0.0,
			"roughnessFactor":0.749000035575591
		},
		"emissiveFactor":[0.0,
		0.0,
		0.0],
		"alphaMode":"OPAQUE",
		"doubleSided":false,
		"name":"RS Standard.1"
	}],
	"animations":[{
		"samplers":[{
			"input":76,
			"interpolation":"LINEAR",
			"output":77
		},
		{
			"input":78,
			"interpolation":"LINEAR",
			"output":79
		},
		{
			"input":84,
			"interpolation":"LINEAR",
			"output":85
		},
		{
			"input":86,
			"interpolation":"LINEAR",
			"output":87
		},
		{
			"input":92,
			"interpolation":"LINEAR",
			"output":93
		},
		{
			"input":94,
			"interpolation":"LINEAR",
			"output":95
		},
		{
			"input":100,
			"interpolation":"LINEAR",
			"output":101
		},
		{
			"input":102,
			"interpolation":"LINEAR",
			"output":103
		},
		{
			"input":108,
			"interpolation":"LINEAR",
			"output":109
		},
		{
			"input":110,
			"interpolation":"LINEAR",
			"output":111
		},
		{
			"input":116,
			"interpolation":"LINEAR",
			"output":117
		},
		{
			"input":118,
			"interpolation":"LINEAR",
			"output":119
		},
		{
			"input":124,
			"interpolation":"LINEAR",
			"output":125
		},
		{
			"input":126,
			"interpolation":"LINEAR",
			"output":127
		},
		{
			"input":132,
			"interpolation":"LINEAR",
			"output":133
		},
		{
			"input":134,
			"interpolation":"LINEAR",
			"output":135
		},
		{
			"input":140,
			"interpolation":"LINEAR",
			"output":141
		},
		{
			"input":142,
			"interpolation":"LINEAR",
			"output":143
		},
		{
			"input":148,
			"interpolation":"LINEAR",
			"output":149
		},
		{
			"input":150,
			"interpolation":"LINEAR",
			"output":151
		},
		{
			"input":156,
			"interpolation":"LINEAR",
			"output":157
		},
		{
			"input":158,
			"interpolation":"LINEAR",
			"output":159
		},
		{
			"input":164,
			"interpolation":"LINEAR",
			"output":165
		},
		{
			"input":166,
			"interpolation":"LINEAR",
			"output":167
		},
		{
			"input":172,
			"interpolation":"LINEAR",
			"output":173
		},
		{
			"input":174,
			"interpolation":"LINEAR",
			"output":175
		},
		{
			"input":180,
			"interpolation":"LINEAR",
			"output":181
		},
		{
			"input":182,
			"interpolation":"LINEAR",
			"output":183
		},
		{
			"input":188,
			"interpolation":"LINEAR",
			"output":189
		},
		{
			"input":190,
			"interpolation":"LINEAR",
			"output":191
		},
		{
			"input":196,
			"interpolation":"LINEAR",
			"output":197
		},
		{
			"input":198,
			"interpolation":"LINEAR",
			"output":199
		},
		{
			"input":204,
			"interpolation":"LINEAR",
			"output":205
		},
		{
			"input":206,
			"interpolation":"LINEAR",
			"output":207
		},
		{
			"input":212,
			"interpolation":"LINEAR",
			"output":213
		},
		{
			"input":214,
			"interpolation":"LINEAR",
			"output":215
		},
		{
			"input":220,
			"interpolation":"LINEAR",
			"output":221
		},
		{
			"input":222,
			"interpolation":"LINEAR",
			"output":223
		},
		{
			"input":228,
			"interpolation":"LINEAR",
			"output":229
		},
		{
			"input":230,
			"interpolation":"LINEAR",
			"output":231
		},
		{
			"input":236,
			"interpolation":"LINEAR",
			"output":237
		},
		{
			"input":238,
			"interpolation":"LINEAR",
			"output":239
		},
		{
			"input":244,
			"interpolation":"LINEAR",
			"output":245
		},
		{
			"input":246,
			"interpolation":"LINEAR",
			"output":247
		},
		{
			"input":252,
			"interpolation":"LINEAR",
			"output":253
		},
		{
			"input":254,
			"interpolation":"LINEAR",
			"output":255
		},
		{
			"input":260,
			"interpolation":"LINEAR",
			"output":261
		},
		{
			"input":262,
			"interpolation":"LINEAR",
			"output":263
		},
		{
			"input":268,
			"interpolation":"LINEAR",
			"output":269
		},
		{
			"input":270,
			"interpolation":"LINEAR",
			"output":271
		},
		{
			"input":276,
			"interpolation":"LINEAR",
			"output":277
		},
		{
			"input":278,
			"interpolation":"LINEAR",
			"output":279
		}],
		"channels":[{
			"sampler":0,
			"target":{
				"node":19,
				"path":"rotation"
			}
		},
		{
			"sampler":1,
			"target":{
				"node":19,
				"path":"scale"
			}
		},
		{
			"sampler":2,
			"target":{
				"node":20,
				"path":"rotation"
			}
		},
		{
			"sampler":3,
			"target":{
				"node":20,
				"path":"scale"
			}
		},
		{
			"sampler":4,
			"target":{
				"node":21,
				"path":"rotation"
			}
		},
		{
			"sampler":5,
			"target":{
				"node":21,
				"path":"scale"
			}
		},
		{
			"sampler":6,
			"target":{
				"node":22,
				"path":"rotation"
			}
		},
		{
			"sampler":7,
			"target":{
				"node":22,
				"path":"scale"
			}
		},
		{
			"sampler":8,
			"target":{
				"node":23,
				"path":"rotation"
			}
		},
		{
			"sampler":9,
			"target":{
				"node":23,
				"path":"scale"
			}
		},
		{
			"sampler":10,
			"target":{
				"node":24,
				"path":"rotation"
			}
		},
		{
			"sampler":11,
			"target":{
				"node":24,
				"path":"scale"
			}
		},
		{
			"sampler":12,
			"target":{
				"node":25,
				"path":"rotation"
			}
		},
		{
			"sampler":13,
			"target":{
				"node":25,
				"path":"scale"
			}
		},
		{
			"sampler":14,
			"target":{
				"node":26,
				"path":"rotation"
			}
		},
		{
			"sampler":15,
			"target":{
				"node":26,
				"path":"scale"
			}
		},
		{
			"sampler":16,
			"target":{
				"node":27,
				"path":"rotation"
			}
		},
		{
			"sampler":17,
			"target":{
				"node":27,
				"path":"scale"
			}
		},
		{
			"sampler":18,
			"target":{
				"node":28,
				"path":"rotation"
			}
		},
		{
			"sampler":19,
			"target":{
				"node":28,
				"path":"scale"
			}
		},
		{
			"sampler":20,
			"target":{
				"node":29,
				"path":"rotation"
			}
		},
		{
			"sampler":21,
			"target":{
				"node":29,
				"path":"scale"
			}
		},
		{
			"sampler":22,
			"target":{
				"node":30,
				"path":"rotation"
			}
		},
		{
			"sampler":23,
			"target":{
				"node":30,
				"path":"scale"
			}
		},
		{
			"sampler":24,
			"target":{
				"node":31,
				"path":"rotation"
			}
		},
		{
			"sampler":25,
			"target":{
				"node":31,
				"path":"scale"
			}
		},
		{
			"sampler":26,
			"target":{
				"node":32,
				"path":"rotation"
			}
		},
		{
			"sampler":27,
			"target":{
				"node":32,
				"path":"scale"
			}
		},
		{
			"sampler":28,
			"target":{
				"node":33,
				"path":"rotation"
			}
		},
		{
			"sampler":29,
			"target":{
				"node":33,
				"path":"scale"
			}
		},
		{
			"sampler":30,
			"target":{
				"node":34,
				"path":"rotation"
			}
		},
		{
			"sampler":31,
			"target":{
				"node":34,
				"path":"scale"
			}
		},
		{
			"sampler":32,
			"target":{
				"node":35,
				"path":"rotation"
			}
		},
		{
			"sampler":33,
			"target":{
				"node":35,
				"path":"scale"
			}
		},
		{
			"sampler":34,
			"target":{
				"node":36,
				"path":"rotation"
			}
		},
		{
			"sampler":35,
			"target":{
				"node":36,
				"path":"scale"
			}
		},
		{
			"sampler":36,
			"target":{
				"node":37,
				"path":"rotation"
			}
		},
		{
			"sampler":37,
			"target":{
				"node":37,
				"path":"scale"
			}
		},
		{
			"sampler":38,
			"target":{
				"node":38,
				"path":"rotation"
			}
		},
		{
			"sampler":39,
			"target":{
				"node":38,
				"path":"scale"
			}
		},
		{
			"sampler":40,
			"target":{
				"node":39,
				"path":"rotation"
			}
		},
		{
			"sampler":41,
			"target":{
				"node":39,
				"path":"scale"
			}
		},
		{
			"sampler":42,
			"target":{
				"node":40,
				"path":"rotation"
			}
		},
		{
			"sampler":43,
			"target":{
				"node":40,
				"path":"scale"
			}
		},
		{
			"sampler":44,
			"target":{
				"node":41,
				"path":"rotation"
			}
		},
		{
			"sampler":45,
			"target":{
				"node":41,
				"path":"scale"
			}
		},
		{
			"sampler":46,
			"target":{
				"node":42,
				"path":"rotation"
			}
		},
		{
			"sampler":47,
			"target":{
				"node":42,
				"path":"scale"
			}
		},
		{
			"sampler":48,
			"target":{
				"node":43,
				"path":"rotation"
			}
		},
		{
			"sampler":49,
			"target":{
				"node":43,
				"path":"scale"
			}
		},
		{
			"sampler":50,
			"target":{
				"node":44,
				"path":"rotation"
			}
		},
		{
			"sampler":51,
			"target":{
				"node":44,
				"path":"scale"
			}
		}]
	}]
}