{
	"asset":{
		"version":"2.0",
		"generator":"Maxon Cinema 4D 2026.1.0 (#200000219)"
	},
	"scenes":[{
		"nodes":[0]
	}],
	"nodes":[{
		"name":"Flea",
		"mesh":0,
		"translation":[0.0,
		0.0,
		0.0],
		"rotation":[0.0,
		0.0,
		0.0,
		-1.0],
		"scale":[1.0,
		1.0,
		1.0]
	}],
	"meshes":[{
		"name":"Flea",
		"primitives":[{
			"attributes":{
				"POSITION":1,
				"NORMAL":2,
				"TEXCOORD_0":3
			},
			"indices":0,
			"material":0
		}]
	}],
	"accessors":[{
		"bufferView":0,
		"type":"SCALAR",
		"componentType":5123,
		"count":13356,
		"byteOffset":0,
		"min":[0],
		"max":[13355]
	},
	{
		"bufferView":1,
		"type":"VEC3",
		"componentType":5126,
		"count":13356,
		"byteOffset":0,
		"min":[-0.47074848413467409,
		-0.014462672173976899,
		-0.5658544301986694],
		"max":[0.4809408187866211,
		0.5605788230895996,
		0.30838319659233096]
	},
	{
		"bufferView":1,
		"type":"VEC3",
		"componentType":5126,
		"count":13356,
		"byteOffset":12,
		"min":[-0.9993098378181458,
		-0.9998323917388916,
		-0.9998943209648132],
		"max":[0.9986841082572937,
		0.9855473637580872,
		0.9997574090957642]
	},
	{
		"bufferView":1,
		"type":"VEC2",
		"componentType":5126,
		"count":13356,
		"byteOffset":24,
		"min":[-3.332789897918701,
		-2.0026097297668459],
		"max":[3.3318400382995607,
		3.932149887084961]
	},
	{
		"bufferView":2,
		"type":"SCALAR",
		"componentType":5126,
		"count":91,
		"byteOffset":0,
		"min":[0.0],
		"max":[3.0]
	},
	{
		"bufferView":2,
		"type":"VEC3",
		"componentType":5126,
		"count":91,
		"byteOffset":364,
		"min":[0.0,
		0.0,
		0.0],
		"max":[0.0,
		0.473251074552536,
		0.0]
	}],
	"bufferViews":[{
		"buffer":0,
		"byteOffset":0,
		"byteLength":26712,
		"target":34963
	},
	{
		"buffer":0,
		"byteOffset":26712,
		"byteLength":427392,
		"target":34962,
		"byteStride":32
	},
	{
		"buffer":1,
		"byteOffset":0,
		"byteLength":1456
	}],
	"buffers":[{
		"uri":"data:application/octet-stream;base64,",
		"byteLength":454104
	},
	{
		"uri":"data:application/octet-stream;base64,",
		"byteLength":1456
	}],
	"materials":[{
		"pbrMetallicRoughness":{
			"baseColorFactor":[0.5019607543945313,
			0.73333340883255,
			0.30980390310287478,
			1.0],
			"metallicFactor":1.0,
			"roughnessFactor":1.0
		},
		"emissiveFactor":[0.0,
		0.0,
		0.0],
		"alphaMode":"OPAQUE",
		"doubleSided":false,
		"name":"Mat.1"
	}],
	"animations":[{
		"samplers":[{
			"input":4,
			"interpolation":"LINEAR",
			"output":5
		}],
		"channels":[{
			"sampler":0,
			"target":{
				"node":0,
				"path":"translation"
			}
		}]
	}]
}