{
	"asset":{
		"version":"2.0",
		"generator":"Maxon Cinema 4D 2026.1.0 (#200000219)"
	},
	"scenes":[{
		"nodes":[0]
	}],
	"nodes":[{
		"name":"Hook Worm",
		"translation":[0.0,
		0.041239798069000247,
		0.0],
		"rotation":[0.7071067690849304,
		7.450580596923828e-9,
		7.450580596923828e-9,
		-0.7071067690849304],
		"scale":[1.838628888130188,
		1.838628888130188,
		1.838628888130188],
		"children":[1]
	},
	{
		"name":"Hook Worm",
		"mesh":0,
		"children":[2],
		"skin":0
	},
	{
		"name":"Root",
		"translation":[-0.2217964082956314,
		-0.23980510234832765,
		1.4683827338271855e-17],
		"rotation":[-0.7071067690849304,
		0.0,
		0.0,
		-0.7071067690849304],
		"scale":[1.0,
		1.0,
		1.0],
		"children":[3]
	},
	{
		"name":"Joint.1",
		"translation":[0.0,
		0.0,
		0.0],
		"rotation":[-0.05798060819506645,
		-0.7434116005897522,
		0.12937572598457337,
		-0.6536355018615723],
		"scale":[1.0,
		1.0,
		1.0],
		"children":[4]
	},
	{
		"name":"Joint.2",
		"translation":[-3.55271373174006e-16,
		-2.600127897840757e-18,
		-0.14494270086288453],
		"rotation":[4.9135371327224679e-9,
		-0.659483790397644,
		-5.6007412041481079e-9,
		0.7517187595367432],
		"scale":[1.0,
		1.0,
		1.0],
		"children":[5]
	},
	{
		"name":"Joint.3",
		"translation":[1.776356799695581e-17,
		-4.1056460367288678e-18,
		-0.10978497564792633],
		"rotation":[-2.2852279422079515e-13,
		-0.4891809821128845,
		-1.2817160256316935e-13,
		0.872182309627533],
		"scale":[1.0,
		1.0,
		1.0],
		"children":[6]
	},
	{
		"name":"Joint.4",
		"translation":[1.77635686587003e-16,
		-9.13457039367411e-18,
		-0.1191079169511795],
		"rotation":[-4.650260753726043e-13,
		-0.373827189207077,
		-1.874282386194956e-13,
		0.9274984002113342],
		"scale":[1.0,
		1.0,
		1.0],
		"children":[7]
	},
	{
		"name":"Joint.5",
		"translation":[-1.6875389762544143e-16,
		-1.656788106848837e-16,
		-0.11440852284431458],
		"rotation":[-2.540784152082337e-13,
		-0.3923192024230957,
		-1.0836778252098361e-13,
		0.9198291301727295],
		"scale":[1.0,
		1.0,
		1.0],
		"children":[8]
	},
	{
		"name":"Joint.6",
		"translation":[1.0658140798173486e-16,
		1.6513766540583875e-18,
		-0.13080935180187226],
		"rotation":[-1.3099777881366015e-14,
		-0.18215808272361756,
		-2.4268332501453488e-15,
		0.9832692742347717],
		"scale":[1.0,
		1.0,
		1.0],
		"children":[9]
	},
	{
		"name":"Joint.7",
		"translation":[1.0658140798173486e-16,
		1.4831943953116825e-17,
		-0.12326262891292572],
		"rotation":[-1.7554664319407998e-13,
		-0.05894315242767334,
		1.0365293794448432e-14,
		-0.9982613325119019],
		"scale":[1.0,
		1.0,
		1.0],
		"children":[10]
	},
	{
		"name":"Joint.8",
		"translation":[1.0658140798173486e-16,
		9.316181205882578e-18,
		-0.12125201523303986],
		"rotation":[-6.372021508528614e-13,
		-0.38358789682388308,
		2.646690375543437e-13,
		-0.9235043525695801],
		"scale":[1.0,
		1.0,
		1.0],
		"children":[11]
	},
	{
		"name":"Joint.9",
		"translation":[-4.618527613034062e-16,
		1.773853585725873e-17,
		-0.1079845279455185],
		"rotation":[-7.676569883235951e-13,
		-0.39015910029411318,
		3.252882717959954e-13,
		-0.9207474589347839],
		"scale":[1.0,
		1.0,
		1.0],
		"children":[12]
	},
	{
		"name":"Joint.10",
		"translation":[-3.552713599391162e-17,
		5.330587533880493e-12,
		-0.11543872207403183],
		"rotation":[-4.878473625069546e-9,
		-0.3839808702468872,
		2.0287633795135209e-9,
		-0.9233410358428955],
		"scale":[1.0,
		1.0,
		1.0],
		"children":[13]
	},
	{
		"name":"Joint.11",
		"translation":[3.996803047469241e-17,
		1.3094488330017e-13,
		-0.12224995344877243],
		"rotation":[-3.818306559821849e-9,
		-0.4047863781452179,
		1.6902660382456248e-9,
		-0.9144113063812256],
		"scale":[1.0,
		1.0,
		1.0],
		"children":[14]
	},
	{
		"name":"Joint.12",
		"translation":[3.4638957097755465e-16,
		2.3011174671468128e-14,
		-0.1247732862830162],
		"rotation":[-1.5011548670784692e-9,
		-0.195308119058609,
		2.9894484110393196e-10,
		-0.9807419180870056],
		"scale":[1.0,
		1.0,
		1.0],
		"children":[15]
	},
	{
		"name":"Joint.13",
		"translation":[-6.217248964370656e-17,
		1.3398598770240038e-16,
		-0.13208886981010438],
		"rotation":[-9.952169088833785e-10,
		-0.13653726875782014,
		-1.371687902151919e-10,
		0.9906349182128906],
		"scale":[1.0,
		1.0,
		1.0],
		"children":[16]
	},
	{
		"name":"Joint.14",
		"translation":[1.2434497928741313e-16,
		-1.8186926048952046e-15,
		-0.11290125548839569],
		"rotation":[-2.573908863823249e-9,
		-0.4484490752220154,
		-1.2914032065935999e-9,
		0.8938083648681641],
		"scale":[1.0,
		1.0,
		1.0],
		"children":[17]
	},
	{
		"name":"Joint.15",
		"translation":[-3.108624416010879e-16,
		-8.508977891860323e-15,
		-0.11974389851093292],
		"rotation":[-1.7192833823287402e-9,
		-0.5071967840194702,
		-1.0118176296813886e-9,
		0.8618302345275879],
		"scale":[1.0,
		1.0,
		1.0],
		"children":[18]
	},
	{
		"name":"Joint.16",
		"translation":[5.684341759025859e-16,
		-6.269801932442967e-16,
		-0.12234724313020706],
		"rotation":[-7.102025079142038e-10,
		-0.3147313594818115,
		-2.3549043270953975e-10,
		0.9491807818412781],
		"scale":[1.0,
		1.0,
		1.0],
		"children":[19]
	},
	{
		"name":"Joint.17",
		"translation":[4.973799171496525e-16,
		-3.5153057392344358e-15,
		-0.13096296787261964],
		"rotation":[-3.392235103927277e-10,
		-0.16540467739105225,
		-5.6892809907616029e-11,
		0.9862257838249207],
		"scale":[1.0,
		1.0,
		1.0],
		"children":[20]
	},
	{
		"name":"Joint.18",
		"translation":[1.77635686587003e-16,
		4.675924616947932e-17,
		-0.08667263388633728],
		"rotation":[-2.7406465985535535e-10,
		-0.13818910717964173,
		-3.823962674287529e-11,
		0.9904058575630188],
		"scale":[1.0,
		1.0,
		1.0],
		"children":[21]
	},
	{
		"name":"Joint.19",
		"translation":[8.88178432935015e-17,
		-1.4122183282876925e-15,
		-0.09763974696397782],
		"rotation":[7.105427357601002e-15,
		-2.220446049250313e-15,
		-1.5777218104420237e-29,
		-1.0],
		"scale":[1.0,
		1.0,
		1.0]
	}],
	"meshes":[{
		"name":"Hook Worm",
		"primitives":[{
			"attributes":{
				"POSITION":1,
				"NORMAL":2,
				"TEXCOORD_0":3,
				"JOINTS_0":4,
				"WEIGHTS_0":5
			},
			"indices":0,
			"material":0
		}]
	}],
	"skins":[{
		"inverseBindMatrices":42,
		"joints":[3,
		4,
		5,
		6,
		7,
		8,
		9,
		10,
		11,
		12,
		13,
		14,
		15,
		16,
		17,
		18,
		19,
		20,
		21]
	}],
	"accessors":[{
		"bufferView":0,
		"type":"SCALAR",
		"componentType":5123,
		"count":4944,
		"byteOffset":0,
		"min":[0],
		"max":[4943]
	},
	{
		"bufferView":1,
		"type":"VEC3",
		"componentType":5126,
		"count":4944,
		"byteOffset":0,
		"min":[-0.4376082718372345,
		-0.44732722640037539,
		-0.23102617263793946],
		"max":[0.35962197184562685,
		0.2357783317565918,
		0.08549382537603378]
	},
	{
		"bufferView":1,
		"type":"VEC3",
		"componentType":5126,
		"count":4944,
		"byteOffset":12,
		"min":[-0.9839680194854736,
		-0.9932551980018616,
		-0.9986419081687927],
		"max":[0.9940044283866882,
		0.9962785840034485,
		0.999817967414856]
	},
	{
		"bufferView":1,
		"type":"VEC2",
		"componentType":5126,
		"count":4944,
		"byteOffset":24,
		"min":[0.0,
		0.0],
		"max":[1.0,
		1.0]
	},
	{
		"bufferView":2,
		"type":"VEC4",
		"componentType":5123,
		"count":4944,
		"byteOffset":0,
		"min":[0,
		0,
		0,
		0],
		"max":[17,
		17,
		15,
		14]
	},
	{
		"bufferView":3,
		"type":"VEC4",
		"componentType":5126,
		"count":4944,
		"byteOffset":0,
		"min":[0.5002059936523438,
		0.0,
		0.0,
		0.0],
		"max":[1.0,
		0.49979400634765627,
		0.0,
		0.0]
	},
	{
		"bufferView":4,
		"type":"SCALAR",
		"componentType":5126,
		"count":91,
		"byteOffset":0,
		"min":[0.0],
		"max":[3.0]
	},
	{
		"bufferView":4,
		"type":"VEC4",
		"componentType":5126,
		"count":91,
		"byteOffset":364,
		"min":[-0.05798053741455078,
		-0.7980797290802002,
		0.0009773073252290488,
		-0.6536359190940857],
		"max":[-0.0003671450540423393,
		-0.7434112429618836,
		0.12937575578689576,
		-0.6025509238243103]
	},
	{
		"bufferView":5,
		"type":"SCALAR",
		"componentType":5126,
		"count":91,
		"byteOffset":0,
		"min":[0.0],
		"max":[3.0]
	},
	{
		"bufferView":5,
		"type":"VEC4",
		"componentType":5126,
		"count":91,
		"byteOffset":364,
		"min":[-2.3390219797782059e-15,
		-0.659483790397644,
		-5.600981456410636e-9,
		-0.7519271969795227],
		"max":[4.9132635737692e-9,
		0.6594470143318176,
		4.934437021042026e-16,
		0.7524299025535584]
	},
	{
		"bufferView":6,
		"type":"SCALAR",
		"componentType":5126,
		"count":91,
		"byteOffset":0,
		"min":[0.0],
		"max":[3.0]
	},
	{
		"bufferView":6,
		"type":"VEC4",
		"componentType":5126,
		"count":91,
		"byteOffset":364,
		"min":[-4.818832507504089e-13,
		-0.5036001801490784,
		-2.8089612883960837e-13,
		0.8639368414878845],
		"max":[-2.2852279422079515e-13,
		-0.4891809821128845,
		-1.2817160256316935e-13,
		0.872182309627533]
	},
	{
		"bufferView":7,
		"type":"SCALAR",
		"componentType":5126,
		"count":91,
		"byteOffset":0,
		"min":[0.0],
		"max":[3.0]
	},
	{
		"bufferView":7,
		"type":"VEC4",
		"componentType":5126,
		"count":91,
		"byteOffset":364,
		"min":[-9.734419216880785e-13,
		-0.39676234126091006,
		-9.706769610318134e-9,
		-0.9212653040885925],
		"max":[4.098894113013785e-9,
		0.3889347314834595,
		-1.874282386194956e-13,
		0.9274984002113342]
	},
	{
		"bufferView":8,
		"type":"SCALAR",
		"componentType":5126,
		"count":91,
		"byteOffset":0,
		"min":[0.0],
		"max":[3.0]
	},
	{
		"bufferView":8,
		"type":"VEC4",
		"componentType":5126,
		"count":91,
		"byteOffset":364,
		"min":[-5.084920115180913e-13,
		-0.40937045216560366,
		-9.690701574527339e-9,
		-0.9197187423706055],
		"max":[4.136738063209577e-9,
		0.3925778865814209,
		-1.0836778252098361e-13,
		0.9198291301727295]
	},
	{
		"bufferView":9,
		"type":"SCALAR",
		"componentType":5126,
		"count":91,
		"byteOffset":0,
		"min":[0.0],
		"max":[3.0]
	},
	{
		"bufferView":9,
		"type":"VEC4",
		"componentType":5126,
		"count":91,
		"byteOffset":364,
		"min":[-1.3536400495786031e-14,
		-0.1822221428155899,
		-1.0360369451234419e-8,
		-0.9832575917243958],
		"max":[1.920024583768054e-9,
		0.18222108483314515,
		-1.046867607148495e-15,
		0.9834216237068176]
	},
	{
		"bufferView":10,
		"type":"SCALAR",
		"componentType":5126,
		"count":91,
		"byteOffset":0,
		"min":[0.0],
		"max":[3.0]
	},
	{
		"bufferView":10,
		"type":"VEC4",
		"componentType":5126,
		"count":91,
		"byteOffset":364,
		"min":[-4.240556202624729e-13,
		-0.07966528832912445,
		1.0365293794448432e-14,
		-0.9982613325119019],
		"max":[8.22383383614067e-10,
		-0.05894315242767334,
		1.0506896686024448e-8,
		-0.9968216419219971]
	},
	{
		"bufferView":11,
		"type":"SCALAR",
		"componentType":5126,
		"count":91,
		"byteOffset":0,
		"min":[0.0],
		"max":[3.0]
	},
	{
		"bufferView":11,
		"type":"VEC4",
		"componentType":5126,
		"count":91,
		"byteOffset":364,
		"min":[-1.4251690105826498e-12,
		-0.420309841632843,
		2.646690375543437e-13,
		-0.9235043525695801],
		"max":[-6.372021508528614e-13,
		-0.38358789682388308,
		6.60155795046552e-13,
		-0.9073806405067444]
	},
	{
		"bufferView":12,
		"type":"SCALAR",
		"componentType":5126,
		"count":91,
		"byteOffset":0,
		"min":[0.0],
		"max":[3.0]
	},
	{
		"bufferView":12,
		"type":"VEC4",
		"componentType":5126,
		"count":91,
		"byteOffset":364,
		"min":[-1.6286411238727871e-12,
		-0.43537285923957827,
		-6.600746425139414e-13,
		-0.9207474589347839],
		"max":[4.5896162426117829e-9,
		0.435428649187088,
		9.696334402065077e-9,
		0.9202747941017151]
	},
	{
		"bufferView":13,
		"type":"SCALAR",
		"componentType":5126,
		"count":91,
		"byteOffset":0,
		"min":[0.0],
		"max":[3.0]
	},
	{
		"bufferView":13,
		"type":"VEC4",
		"componentType":5126,
		"count":91,
		"byteOffset":364,
		"min":[-5.19043075186687e-9,
		-0.4251004457473755,
		-2.4206847637486818e-9,
		-0.9233410358428955],
		"max":[8.354892777617806e-9,
		0.42490559816360476,
		9.181210458564238e-9,
		0.9059269428253174]
	},
	{
		"bufferView":14,
		"type":"SCALAR",
		"componentType":5126,
		"count":91,
		"byteOffset":0,
		"min":[0.0],
		"max":[3.0]
	},
	{
		"bufferView":14,
		"type":"VEC4",
		"componentType":5126,
		"count":91,
		"byteOffset":364,
		"min":[-3.953077865048726e-9,
		-0.42984896898269656,
		-1.8766239673340125e-9,
		-0.9144113063812256],
		"max":[8.481821467398732e-9,
		0.4298199415206909,
		7.632013243608072e-9,
		0.9032281637191773]
	},
	{
		"bufferView":15,
		"type":"SCALAR",
		"componentType":5126,
		"count":91,
		"byteOffset":0,
		"min":[0.0],
		"max":[3.0]
	},
	{
		"bufferView":15,
		"type":"VEC4",
		"componentType":5126,
		"count":91,
		"byteOffset":364,
		"min":[-1.5615838622196066e-9,
		-0.20391452312469483,
		-3.0555924457331687e-10,
		-0.9807419180870056],
		"max":[3.074063448238462e-9,
		0.2034432291984558,
		7.613778052473208e-9,
		0.9806753396987915]
	},
	{
		"bufferView":16,
		"type":"SCALAR",
		"componentType":5126,
		"count":91,
		"byteOffset":0,
		"min":[0.0],
		"max":[3.0]
	},
	{
		"bufferView":16,
		"type":"VEC4",
		"componentType":5126,
		"count":91,
		"byteOffset":364,
		"min":[-1.0408669481876132e-9,
		-0.1430741250514984,
		-7.524377565459872e-9,
		-0.9905500411987305],
		"max":[2.0909503017918498e-9,
		0.1419711410999298,
		-1.371687902151919e-10,
		0.9906349182128906]
	},
	{
		"bufferView":17,
		"type":"SCALAR",
		"componentType":5126,
		"count":91,
		"byteOffset":0,
		"min":[0.0],
		"max":[3.0]
	},
	{
		"bufferView":17,
		"type":"VEC4",
		"componentType":5126,
		"count":91,
		"byteOffset":364,
		"min":[-2.6276580911144267e-9,
		-0.468634694814682,
		-5.27451682330593e-9,
		-0.893180251121521],
		"max":[6.0679790081508148e-9,
		0.4634884297847748,
		1.3270565757395048e-9,
		0.8938083648681641]
	},
	{
		"bufferView":18,
		"type":"SCALAR",
		"componentType":5126,
		"count":91,
		"byteOffset":0,
		"min":[0.0],
		"max":[3.0]
	},
	{
		"bufferView":18,
		"type":"VEC4",
		"componentType":5126,
		"count":91,
		"byteOffset":364,
		"min":[-1.7472435720478075e-9,
		-0.5412320494651794,
		-1.0051930843246737e-8,
		-0.8444807529449463],
		"max":[5.734190899886471e-9,
		0.535585880279541,
		-1.0118176296813886e-9,
		0.8618302345275879]
	},
	{
		"bufferView":19,
		"type":"SCALAR",
		"componentType":5126,
		"count":91,
		"byteOffset":0,
		"min":[0.0],
		"max":[3.0]
	},
	{
		"bufferView":19,
		"type":"VEC4",
		"componentType":5126,
		"count":91,
		"byteOffset":364,
		"min":[-7.739751062274536e-10,
		-0.3525909185409546,
		-6.802579388676122e-9,
		-0.9462883472442627],
		"max":[3.134254189518515e-9,
		0.35056012868881228,
		2.884990024654144e-10,
		0.9491807818412781]
	},
	{
		"bufferView":20,
		"type":"SCALAR",
		"componentType":5126,
		"count":91,
		"byteOffset":0,
		"min":[0.0],
		"max":[3.0]
	},
	{
		"bufferView":20,
		"type":"VEC4",
		"componentType":5126,
		"count":91,
		"byteOffset":364,
		"min":[-3.9050038203036765e-10,
		-0.19211843609809876,
		-7.28373494851553e-9,
		-0.9855889081954956],
		"max":[1.7895541715162722e-9,
		0.1886569708585739,
		6.802758356627692e-11,
		0.9862257838249207]
	},
	{
		"bufferView":21,
		"type":"SCALAR",
		"componentType":5126,
		"count":91,
		"byteOffset":0,
		"min":[0.0],
		"max":[3.0]
	},
	{
		"bufferView":21,
		"type":"VEC4",
		"componentType":5126,
		"count":91,
		"byteOffset":364,
		"min":[-3.0276731122214075e-10,
		-0.15326742827892304,
		-7.417290781575048e-9,
		0.9881847500801086],
		"max":[8.331944578721107e-10,
		-0.13818910717964173,
		-3.823962674287529e-11,
		0.9904058575630188]
	},
	{
		"bufferView":22,
		"type":"MAT4",
		"componentType":5126,
		"count":19,
		"byteOffset":0,
		"min":[-0.8685072064399719,
		0.25533604621887209,
		-0.9652921557426453,
		0.0,
		-0.9928523302078247,
		0.11656244844198227,
		-0.9734114408493042,
		0.0,
		-0.2766672670841217,
		0.9598003625869751,
		-0.26815521717071535,
		0.0,
		-0.3944600820541382,
		0.08458489179611206,
		-0.37089821696281435,
		1.0],
		"max":[0.9530990719795227,
		0.25533607602119448,
		0.9568378329277039,
		0.0,
		0.9868429899215698,
		0.11656246334314347,
		0.9052578806877136,
		0.0,
		0.280666708946228,
		0.9598003625869751,
		0.27911147475242617,
		0.0,
		0.4075636565685272,
		0.08458489179611206,
		0.23909218609333039,
		1.0]
	}],
	"bufferViews":[{
		"buffer":0,
		"byteOffset":0,
		"byteLength":9888,
		"target":34963
	},
	{
		"buffer":0,
		"byteOffset":9888,
		"byteLength":158208,
		"target":34962,
		"byteStride":32
	},
	{
		"buffer":0,
		"byteOffset":168096,
		"byteLength":39552,
		"target":34962
	},
	{
		"buffer":0,
		"byteOffset":207648,
		"byteLength":79104,
		"target":34962
	},
	{
		"buffer":1,
		"byteOffset":0,
		"byteLength":1820
	},
	{
		"buffer":2,
		"byteOffset":0,
		"byteLength":1820
	},
	{
		"buffer":3,
		"byteOffset":0,
		"byteLength":1820
	},
	{
		"buffer":4,
		"byteOffset":0,
		"byteLength":1820
	},
	{
		"buffer":5,
		"byteOffset":0,
		"byteLength":1820
	},
	{
		"buffer":6,
		"byteOffset":0,
		"byteLength":1820
	},
	{
		"buffer":7,
		"byteOffset":0,
		"byteLength":1820
	},
	{
		"buffer":8,
		"byteOffset":0,
		"byteLength":1820
	},
	{
		"buffer":9,
		"byteOffset":0,
		"byteLength":1820
	},
	{
		"buffer":10,
		"byteOffset":0,
		"byteLength":1820
	},
	{
		"buffer":11,
		"byteOffset":0,
		"byteLength":1820
	},
	{
		"buffer":12,
		"byteOffset":0,
		"byteLength":1820
	},
	{
		"buffer":13,
		"byteOffset":0,
		"byteLength":1820
	},
	{
		"buffer":14,
		"byteOffset":0,
		"byteLength":1820
	},
	{
		"buffer":15,
		"byteOffset":0,
		"byteLength":1820
	},
	{
		"buffer":16,
		"byteOffset":0,
		"byteLength":1820
	},
	{
		"buffer":17,
		"byteOffset":0,
		"byteLength":1820
	},
	{
		"buffer":18,
		"byteOffset":0,
		"byteLength":1820
	},
	{
		"buffer":19,
		"byteOffset":0,
		"byteLength":1216
	}],
	"buffers":[{
		"uri":"data:application/octet-stream;base64,",
		"byteLength":286752
	},
	{
		"uri":"data:application/octet-stream;base64,",
		"byteLength":1820
	},
	{
		"uri":"data:application/octet-stream;base64,",
		"byteLength":1820
	},
	{
		"uri":"data:application/octet-stream;base64,",
		"byteLength":1820
	},
	{
		"uri":"data:application/octet-stream;base64,",
		"byteLength":1820
	},
	{
		"uri":"data:application/octet-stream;base64,",
		"byteLength":1820
	},
	{
		"uri":"data:application/octet-stream;base64,",
		"byteLength":1820
	},
	{
		"uri":"data:application/octet-stream;base64,",
		"byteLength":1820
	},
	{
		"uri":"data:application/octet-stream;base64,",
		"byteLength":1820
	},
	{
		"uri":"data:application/octet-stream;base64,",
		"byteLength":1820
	},
	{
		"uri":"data:application/octet-stream;base64,",
		"byteLength":1820
	},
	{
		"uri":"data:application/octet-stream;base64,",
		"byteLength":1820
	},
	{
		"uri":"data:application/octet-stream;base64,",
		"byteLength":1820
	},
	{
		"uri":"data:application/octet-stream;base64,",
		"byteLength":1820
	},
	{
		"uri":"data:application/octet-stream;base64,",
		"byteLength":1820
	},
	{
		"uri":"data:application/octet-stream;base64,",
		"byteLength":1820
	},
	{
		"uri":"data:application/octet-stream;base64,",
		"byteLength":1820
	},
	{
		"uri":"data:application/octet-stream;base64,",
		"byteLength":1820
	},
	{
		"uri":"data:application/octet-stream;base64,",
		"byteLength":1820
	},
	{
		"uri":"data:application/octet-stream;base64,",
		"byteLength":1216
	}],
	"materials":[{
		"pbrMetallicRoughness":{
			"baseColorFactor":[0.0,
			0.3185468018054962,
			0.68668532371521,
			1.0],
			"metallicFactor":0.0,
			"roughnessFactor":0.6340000301133841
		},
		"emissiveFactor":[0.0,
		0.0,
		0.0],
		"alphaMode":"OPAQUE",
		"doubleSided":false,
		"name":"RS Standard"
	}],
	"animations":[{
		"samplers":[{
			"input":6,
			"interpolation":"LINEAR",
			"output":7
		},
		{
			"input":8,
			"interpolation":"LINEAR",
			"output":9
		},
		{
			"input":10,
			"interpolation":"LINEAR",
			"output":11
		},
		{
			"input":12,
			"interpolation":"LINEAR",
			"output":13
		},
		{
			"input":14,
			"interpolation":"LINEAR",
			"output":15
		},
		{
			"input":16,
			"interpolation":"LINEAR",
			"output":17
		},
		{
			"input":18,
			"interpolation":"LINEAR",
			"output":19
		},
		{
			"input":20,
			"interpolation":"LINEAR",
			"output":21
		},
		{
			"input":22,
			"interpolation":"LINEAR",
			"output":23
		},
		{
			"input":24,
			"interpolation":"LINEAR",
			"output":25
		},
		{
			"input":26,
			"interpolation":"LINEAR",
			"output":27
		},
		{
			"input":28,
			"interpolation":"LINEAR",
			"output":29
		},
		{
			"input":30,
			"interpolation":"LINEAR",
			"output":31
		},
		{
			"input":32,
			"interpolation":"LINEAR",
			"output":33
		},
		{
			"input":34,
			"interpolation":"LINEAR",
			"output":35
		},
		{
			"input":36,
			"interpolation":"LINEAR",
			"output":37
		},
		{
			"input":38,
			"interpolation":"LINEAR",
			"output":39
		},
		{
			"input":40,
			"interpolation":"LINEAR",
			"output":41
		}],
		"channels":[{
			"sampler":0,
			"target":{
				"node":3,
				"path":"rotation"
			}
		},
		{
			"sampler":1,
			"target":{
				"node":4,
				"path":"rotation"
			}
		},
		{
			"sampler":2,
			"target":{
				"node":5,
				"path":"rotation"
			}
		},
		{
			"sampler":3,
			"target":{
				"node":6,
				"path":"rotation"
			}
		},
		{
			"sampler":4,
			"target":{
				"node":7,
				"path":"rotation"
			}
		},
		{
			"sampler":5,
			"target":{
				"node":8,
				"path":"rotation"
			}
		},
		{
			"sampler":6,
			"target":{
				"node":9,
				"path":"rotation"
			}
		},
		{
			"sampler":7,
			"target":{
				"node":10,
				"path":"rotation"
			}
		},
		{
			"sampler":8,
			"target":{
				"node":11,
				"path":"rotation"
			}
		},
		{
			"sampler":9,
			"target":{
				"node":12,
				"path":"rotation"
			}
		},
		{
			"sampler":10,
			"target":{
				"node":13,
				"path":"rotation"
			}
		},
		{
			"sampler":11,
			"target":{
				"node":14,
				"path":"rotation"
			}
		},
		{
			"sampler":12,
			"target":{
				"node":15,
				"path":"rotation"
			}
		},
		{
			"sampler":13,
			"target":{
				"node":16,
				"path":"rotation"
			}
		},
		{
			"sampler":14,
			"target":{
				"node":17,
				"path":"rotation"
			}
		},
		{
			"sampler":15,
			"target":{
				"node":18,
				"path":"rotation"
			}
		},
		{
			"sampler":16,
			"target":{
				"node":19,
				"path":"rotation"
			}
		},
		{
			"sampler":17,
			"target":{
				"node":20,
				"path":"rotation"
			}
		}]
	}]
}